<?xml version="1.0" encoding="UTF-8" standalone="no"?>
<svg width="48px" height="47px" viewBox="0 0 48 47" version="1.1" xmlns="http://www.w3.org/2000/svg" xmlns:xlink="http://www.w3.org/1999/xlink" xmlns:sketch="http://www.bohemiancoding.com/sketch/ns">
    <!-- Generator: Sketch 3.0.3 (7891) - http://www.bohemiancoding.com/sketch -->
    <title>aksessuary</title>
    <desc>Created with Sketch.</desc>
    <defs></defs>
    <g id="Welcome" stroke="none" stroke-width="1" fill="none" fill-rule="evenodd" sketch:type="MSPage">
        <g id="Nav-2" sketch:type="MSArtboardGroup" transform="translate(-18.000000, -593.000000)" stroke-width="2">
            <g id="aksessuary" sketch:type="MSLayerGroup" transform="translate(19.000000, 593.000000)">
                <path d="M46,28.4 C46.6,15.3 36.1,4.4 23,4.4 C9.9,4.4 -0.6,15.3 -1.03028697e-13,28.4 C-1.03028697e-13,28.4 -1.03028697e-13,24.4 5,24.4 C10,24.4 11,28.4 11,28.4 C11,28.4 12,24.4 17,24.4 C22,24.4 23,28.4 23,28.4 C23,28.4 25,24.4 29,24.4 C33,24.4 35,28.4 35,28.4 C35,28.4 37,24.4 41,24.4 C45,24.4 46,28.4 46,28.4 L46,28.4 Z" id="Shape" stroke="#000000" sketch:type="MSShapeGroup"></path>
                <path d="M23,4.4 L23,0.4" id="Shape" stroke="#E29454" sketch:type="MSShapeGroup"></path>
                <path d="M28,43.4 C28,46.4 23,46.4 23,43.4 L23,28.4" id="Shape" stroke="#E29454" sketch:type="MSShapeGroup"></path>
            </g>
        </g>
    </g>
</svg>