<?xml version="1.0" encoding="UTF-8" standalone="no"?>
<svg width="48px" height="34px" viewBox="0 0 48 34" version="1.1" xmlns="http://www.w3.org/2000/svg" xmlns:xlink="http://www.w3.org/1999/xlink" xmlns:sketch="http://www.bohemiancoding.com/sketch/ns">
    <!-- Generator: Sketch 3.0.2 (7799) - http://www.bohemiancoding.com/sketch -->
    <title>avtoliubitelyam</title>
    <description>Created with Sketch.</description>
    <defs></defs>
    <g id="Welcome" stroke="none" stroke-width="1" fill="none" fill-rule="evenodd" sketch:type="MSPage">
        <g id="Nav" sketch:type="MSArtboardGroup" transform="translate(-18.000000, -1259.000000)" stroke="#252324">
            <g id="avtoliubitelyam" sketch:type="MSLayerGroup" transform="translate(18.000000, 1259.000000)">
                <rect id="Rectangle-100" sketch:type="MSShapeGroup" x="19" y="25" width="10" height="5"></rect>
                <path d="M10.7137634,14.7518135 C10.423812,14.2656599 10.2911675,13.6706598 10.3714975,13.0280201 L11.6285025,2.97197986 C11.8329211,1.33663106 13.3391568,0 14.9910904,0 L33.0089096,0 C34.6582294,0 36.1663251,1.33060071 36.3714975,2.97197986 L37.6285025,13.0280201 C37.7469092,13.9752739 37.4026697,14.8223033 36.7703993,15.3673979 C34.5209719,12.2061925 29.4255757,10 23.5,10 C17.9671459,10 13.1580764,11.9234492 10.7137634,14.7518135 Z" id="Rectangle-104" sketch:type="MSShapeGroup"></path>
                <rect id="Rectangle-103" sketch:type="MSShapeGroup" x="23" y="16" width="2" height="2"></rect>
                <rect id="Rectangle-101" sketch:type="MSShapeGroup" x="6" y="28" width="8" height="6" rx="2"></rect>
                <circle id="Oval-51" sketch:type="MSShapeGroup" cx="8" cy="21" r="3"></circle>
                <path d="M29,29 L40.5010601,29 C40.5010601,29 40.5011113,28.994788 40.5011923,28.9845554 L40.5011923,28.9845554 C44.6859943,28.7258706 48,25.2499491 48,21 C48,16.581722 44.418278,13 40,13 C38.94572,13 37.9390723,13.2039378 37.0173541,13.5745161 C33.9916176,14.2464162 30.5740013,21.1267219 24.1208496,21.1385999 C19.4378164,21.1472196 16.2159268,17.5484585 13.625069,15.311537 L13.625069,15.311537 C12.1799351,13.8824081 10.1930163,13 8,13 C3.581722,13 0,16.581722 0,21 C0,25.2255379 3.2760445,28.6859145 7.42678336,28.9797799 L7.42285156,29 L19,29 L19,25 L29,25 L29,29 Z" id="Oval-54" sketch:type="MSShapeGroup"></path>
                <rect id="Rectangle-105" sketch:type="MSShapeGroup" x="6" y="28" width="8" height="6" rx="2"></rect>
                <circle id="Oval-52" sketch:type="MSShapeGroup" cx="40" cy="21" r="3"></circle>
                <rect id="Rectangle-102" sketch:type="MSShapeGroup" x="34" y="28" width="8" height="6" rx="2"></rect>
            </g>
        </g>
    </g>
</svg>