<?xml version="1.0" encoding="UTF-8" standalone="no"?>
<svg width="48px" height="32px" viewBox="0 0 48 32" version="1.1" xmlns="http://www.w3.org/2000/svg" xmlns:xlink="http://www.w3.org/1999/xlink" xmlns:sketch="http://www.bohemiancoding.com/sketch/ns">
    <!-- Generator: Sketch 3.0.3 (7891) - http://www.bohemiancoding.com/sketch -->
    <title>avtoliubitelyam</title>
    <desc>Created with Sketch.</desc>
    <defs></defs>
    <g id="Welcome" stroke="none" stroke-width="1" fill="none" fill-rule="evenodd" sketch:type="MSPage">
        <g id="Nav-2" sketch:type="MSArtboardGroup" transform="translate(-18.000000, -1171.000000)" stroke-width="2">
            <g id="avtoliubitelyam" sketch:type="MSLayerGroup" transform="translate(18.000000, 1172.000000)">
                <rect id="Rectangle-100" stroke="#252324" sketch:type="MSShapeGroup" x="19" y="22" width="10" height="5"></rect>
                <rect id="Rectangle-103" stroke="#252324" sketch:type="MSShapeGroup" x="23" y="13" width="2" height="2"></rect>
                <rect id="Rectangle-105" stroke="#252324" sketch:type="MSShapeGroup" x="6" y="25" width="8" height="6" rx="2"></rect>
                <rect id="Rectangle-101" stroke="#252324" sketch:type="MSShapeGroup" x="6" y="25" width="8" height="6" rx="2"></rect>
                <rect id="Rectangle-102" stroke="#252324" sketch:type="MSShapeGroup" x="34" y="25" width="8" height="6" rx="2"></rect>
                <path d="M23.4176886,7.83527192 C18.2874426,7.83527192 13.5400268,9.35861385 10.4772941,11.9308146 L11.6212262,2.91078379 C11.8243527,1.30910848 13.3210681,0 14.9625605,0 L32.8664961,0 C34.5053912,0 36.0039548,1.30320229 36.2078304,2.91078379 L37.4568904,12.75976 C37.4671464,12.8406295 37.4739093,12.9207531 37.4772941,13 C34.5483622,9.7949951 29.2367473,7.83527192 23.4176886,7.83527192 Z" id="Path" stroke="#E29454" sketch:type="MSShapeGroup"></path>
                <path d="M29,26 L40.5010601,26 C40.5010601,26 40.5011113,25.994788 40.5011923,25.9845554 L40.5011923,25.9845554 C44.6859943,25.7258706 48,22.2499491 48,18 C48,13.581722 44.418278,10 40,10 C38.94572,10 37.9390723,10.2039378 37.0173541,10.5745161 C33.9916176,11.2464162 30.5740013,18.1267219 24.1208496,18.1385999 C19.4378164,18.1472196 16.2159268,14.5484585 13.625069,12.311537 L13.625069,12.311537 C12.1799351,10.8824081 10.1930163,10 8,10 C3.581722,10 0,13.581722 0,18 C0,22.2255379 3.2760445,25.6859145 7.42678336,25.9797799 L7.42285156,26 L19,26 L19,22 L29,22 L29,26 Z" id="Oval-54" stroke="#252324" fill="#FFFFFF" sketch:type="MSShapeGroup"></path>
                <circle id="Oval-51" stroke="#E29454" sketch:type="MSShapeGroup" cx="8" cy="18" r="3"></circle>
                <circle id="Oval-52" stroke="#E29454" sketch:type="MSShapeGroup" cx="40" cy="18" r="3"></circle>
            </g>
        </g>
    </g>
</svg>