<?xml version="1.0" encoding="UTF-8" standalone="no"?>
<svg width="48px" height="48px" viewBox="0 0 48 48" version="1.1" xmlns="http://www.w3.org/2000/svg" xmlns:xlink="http://www.w3.org/1999/xlink" xmlns:sketch="http://www.bohemiancoding.com/sketch/ns">
    <!-- Generator: Sketch 3.0.2 (7799) - http://www.bohemiancoding.com/sketch -->
    <title>bytovaya-tekhnika</title>
    <description>Created with Sketch.</description>
    <defs></defs>
    <g id="Welcome" stroke="none" stroke-width="1" fill="none" fill-rule="evenodd" sketch:type="MSPage">
        <g id="Nav" sketch:type="MSArtboardGroup" transform="translate(-18.000000, -353.000000)" stroke="#252324">
            <g id="bytovaya-tekhnika" sketch:type="MSLayerGroup" transform="translate(19.000000, 354.000000)">
                <path d="M22,0 L6,0 L6,20 L20,20 L20,40 L0,40 L0,46 L22,46 L46,46 L46,3 C46,1.3 44.7,0 43,0 L22,0 L22,0 Z" id="Shape" sketch:type="MSShapeGroup"></path>
                <path d="M36,46 L36,24 L46,24" id="Shape" sketch:type="MSShapeGroup"></path>
                <path d="M34,10 L46,10" id="Shape" sketch:type="MSShapeGroup"></path>
                <path d="M34,14 L46,14" id="Shape" sketch:type="MSShapeGroup"></path>
                <path d="M34,18 L46,18" id="Shape" sketch:type="MSShapeGroup"></path>
                <rect id="Rectangle-path" sketch:type="MSShapeGroup" x="8" y="27" width="8" height="4"></rect>
                <path d="M8,29 L0,29" id="Shape" sketch:type="MSShapeGroup"></path>
                <path d="M14,27 L14,20" id="Shape" sketch:type="MSShapeGroup"></path>
                <path d="M10,27 L10,20" id="Shape" sketch:type="MSShapeGroup"></path>
                <circle id="Oval" sketch:type="MSShapeGroup" cx="13" cy="7" r="3"></circle>
                <path d="M12,31 L12,33" id="Shape" sketch:type="MSShapeGroup"></path>
            </g>
        </g>
    </g>
</svg>