<?xml version="1.0" encoding="UTF-8" standalone="no"?>
<svg width="42px" height="42px" viewBox="0 0 42 42" version="1.1" xmlns="http://www.w3.org/2000/svg" xmlns:xlink="http://www.w3.org/1999/xlink" xmlns:sketch="http://www.bohemiancoding.com/sketch/ns">
    <!-- Generator: Sketch 3.0.2 (7799) - http://www.bohemiancoding.com/sketch -->
    <title>Shape</title>
    <description>Created with Sketch.</description>
    <defs></defs>
    <g id="Welcome" stroke="none" stroke-width="1" fill="none" fill-rule="evenodd" sketch:type="MSPage">
        <g id="Nav" sketch:type="MSArtboardGroup" transform="translate(-23.000000, -22.000000)" fill="#FFFFFF">
            <path d="M35.0299107,47.5653139 C35.0299107,47.5653139 37.0581607,51.1081889 37.5455357,52.0356889 C38.0346607,52.9605639 38.1580357,53.9186889 37.8027857,54.5005639 C37.2637857,55.3816889 32.3419107,62.7806889 31.9061607,63.4036889 C31.4695357,64.0266889 30.2226607,64.3268139 29.0011607,63.4701889 C27.7787857,62.6179389 22.9487857,58.6821889 23.0004107,57.0144389 C23.0546607,55.3440639 23.2069107,48.3991889 36.3065357,35.3030639 C49.4026607,22.2086889 56.3492857,22.0538139 58.0187857,22.0004389 C59.6882857,21.9470639 63.6257857,26.7770639 64.4797857,27.9985639 C65.3329107,29.2218139 65.0117857,30.4704389 64.4115357,30.9044389 C63.7281607,31.3979389 56.3527857,36.2629389 55.5066607,36.7984389 C54.9300357,37.1650639 53.9666607,37.0303139 53.0409107,36.5411889 C52.1125357,36.0546889 48.5705357,34.0264389 48.5705357,34.0264389 C48.5705357,34.0264389 46.1319107,35.4561889 41.2975357,40.2914389 C36.4622857,45.1275639 35.0299107,47.5653139 35.0299107,47.5653139 L35.0299107,47.5653139 Z" id="Shape" sketch:type="MSShapeGroup" transform="translate(44.000000, 43.000000) rotate(-90.000000) translate(-44.000000, -43.000000) "></path>
        </g>
    </g>
</svg>