<?xml version="1.0" encoding="UTF-8" standalone="no"?>
<svg width="233px" height="58px" viewBox="0 0 233 58" version="1.1" xmlns="http://www.w3.org/2000/svg" xmlns:xlink="http://www.w3.org/1999/xlink" xmlns:sketch="http://www.bohemiancoding.com/sketch/ns">
    <!-- Generator: Sketch 3.0.2 (7799) - http://www.bohemiancoding.com/sketch -->
    <title>MasterCard_logo + Group</title>
    <description>Created with Sketch.</description>
    <defs></defs>
    <g id="Welcome" stroke="none" stroke-width="1" fill="none" fill-rule="evenodd" sketch:type="MSPage">
        <g id="Order" sketch:type="MSArtboardGroup" transform="translate(-203.000000, -1397.000000)">
            <g id="MasterCard_logo-+-Group" sketch:type="MSLayerGroup" transform="translate(203.000000, 1397.000000)">
                <g id="MasterCard_logo" sketch:type="MSShapeGroup">
                    <path d="M67.6306277,57.4402817 L69.1224828,57.4015398 L70.5948364,57.295134 L72.0379381,57.1112444 L73.4714245,56.8594219 L74.8656372,56.539801 L76.2404841,56.1522473 L77.5860788,55.6971642 L78.9024215,55.1838337 L80.1895122,54.6027049 L81.4376001,53.9731486 L82.6466852,53.275794 L83.8265183,52.530012 L84.957598,51.7261171 L86.0496749,50.8737948 L87.1027491,49.9730451 L88.1072052,49.0141825 L89.0723878,48.0165779 L89.9792017,46.9704115 L90.8372621,45.8857722 L91.6465691,44.7622564 L92.397372,43.5903132 L93.0994214,42.3893136 L93.733216,41.1495721 L94.3182572,39.8710886 L94.8350436,38.5635487 L95.2933259,37.2269524 L95.6833534,35.8612996 L96.005126,34.4762759 L96.2586439,33.0525102 L96.443907,31.619059 L96.5511645,30.1565514 L96.5901673,28.6746729 L96.5511645,27.2024798 L96.443907,25.7496577 L96.2586439,24.3162065 L96.005126,22.9118118 L95.6833534,21.5267881 L95.2933259,20.1708208 L94.8350436,18.8342244 L94.3182572,17.53637 L93.733216,16.267572 L93.0994214,15.0278305 L92.397372,13.8365164 L91.6465691,12.6645732 L90.8372621,11.5410574 L89.9792017,10.4659691 L89.0723878,9.41993715 L88.1072052,8.42233264 L87.1027491,7.47315552 L86.0496749,6.57240581 L84.957598,5.72008351 L83.8265183,4.9161886 L82.6466852,4.17040659 L81.4376001,3.48273745 L80.1895122,2.8531812 L78.9024215,2.27205236 L77.5860788,1.75872188 L76.2404841,1.30350428 L74.8656372,0.916085054 L73.4714245,0.59646419 L72.0379381,0.34464169 L70.5948364,0.160617556 L69.1224828,0.0540772675 L67.6306277,0.0153353445 L66.1485233,0.0540772675 L64.6761696,0.160617556 L63.233068,0.34464169 L61.8094677,0.59646419 L60.4151195,0.916085054 L59.0402727,1.30350428 L57.7044286,1.75872188 L56.3880859,2.27205236 L55.1107459,2.8531812 L53.8724087,3.48273745 L52.6633236,4.17040659 L51.4932412,4.9161886 L50.3621615,5.72008351 L49.2700846,6.57240581 L48.2267611,7.47315552 L47.2224404,8.42233264 L46.2668731,9.41993715 L45.3600592,10.4659691 L44.5019988,11.5410574 L43.7024425,12.6645732 L42.9516396,13.8365164 L42.2593408,15.0278305 L41.6157955,16.267572 L41.040505,17.53637 L40.5237186,18.8342244 L40.075187,20.1708208 L39.6851595,21.5267881 L39.3635223,22.9118118 L39.109869,24.3162065 L38.924606,25.7496577 L38.8173484,27.2024798 L38.7783457,28.6746729 L38.8173484,30.1565514 L38.924606,31.619059 L39.109869,33.0525102 L39.3635223,34.4762759 L39.6851595,35.8612996 L40.075187,37.2269524 L40.5237186,38.5635487 L41.040505,39.8710886 L41.6157955,41.1495721 L42.2593408,42.3893136 L42.9516396,43.5903132 L43.7024425,44.7622564 L44.5019988,45.8857722 L45.3600592,46.9704115 L46.2668731,48.0165779 L47.2224404,49.0141825 L48.2267611,49.9730451 L49.2700846,50.8737948 L50.3621615,51.7261171 L51.4932412,52.530012 L52.6633236,53.275794 L53.8724087,53.9731486 L55.1107459,54.6027049 L56.3880859,55.1838337 L57.7044286,55.6971642 L59.0402727,56.1522473 L60.4151195,56.539801 L61.8094677,56.8594219 L63.233068,57.1112444 L64.6761696,57.295134 L66.1485233,57.4015398 L67.6306277,57.4402817" id="Fill-1" fill="#F1AC3D"></path>
                    <path d="M28.9594041,57.4402817 L30.4415085,57.4015398 L31.9138622,57.295134 L33.3569639,57.1112444 L34.7805641,56.8594219 L36.1749123,56.539801 L37.5497591,56.1522473 L38.8856032,55.6971642 L40.2019459,55.1838337 L41.4792859,54.6027049 L42.7176231,53.9731486 L43.9267083,53.275794 L45.0967907,52.530012 L46.2278703,51.7261171 L47.3199472,50.8737948 L48.3632707,49.9730451 L49.3675915,49.0141825 L50.3231588,48.0165779 L51.2299726,46.9704115 L52.088033,45.8857722 L52.8875894,44.7622564 L53.6383922,43.5903132 L54.330691,42.3893136 L54.9742363,41.1495721 L55.5495268,39.8710886 L56.0663132,38.5635487 L56.5148448,37.2269524 L56.9048723,35.8612996 L57.226645,34.4762759 L57.4801628,33.0525102 L57.6654259,31.619059 L57.7726834,30.1565514 L57.8116862,28.6746729 L57.7726834,27.2024798 L57.6654259,25.7496577 L57.4801628,24.3162065 L57.226645,22.9118118 L56.9048723,21.5267881 L56.5148448,20.1708208 L56.0663132,18.8342244 L55.5495268,17.53637 L54.9742363,16.267572 L54.330691,15.0278305 L53.6383922,13.8365164 L52.8875894,12.6645732 L52.088033,11.5410574 L51.2299726,10.4659691 L50.3231588,9.41993715 L49.3675915,8.42233264 L48.3632707,7.47315552 L47.3199472,6.57240581 L46.2278703,5.72008351 L45.0967907,4.9161886 L43.9267083,4.17040659 L42.7176231,3.48273745 L41.4792859,2.8531812 L40.2019459,2.27205236 L38.8856032,1.75872188 L37.5497591,1.30350428 L36.1749123,0.916085054 L34.7805641,0.59646419 L33.3569639,0.34464169 L31.9138622,0.160617556 L30.4415085,0.0540772675 L28.9594041,0.0153353445 L27.4675491,0.0540772675 L25.9951954,0.160617556 L24.5520937,0.34464169 L23.1187428,0.59646419 L21.7243946,0.916085054 L20.3496832,1.30350428 L19.003953,1.75872188 L17.6876103,2.27205236 L16.4005196,2.8531812 L15.1524317,3.48273745 L13.9433466,4.17040659 L12.7635135,4.9161886 L11.6324338,5.72008351 L10.5403569,6.57240581 L9.48728276,7.47315552 L8.48296202,8.42233264 L7.51764404,9.41993715 L6.61083017,10.4659691 L5.75276974,11.5410574 L4.94346274,12.6645732 L4.19265986,13.8365164 L3.49061042,15.0278305 L2.85681578,16.267572 L2.27177458,17.53637 L1.75498818,18.8342244 L1.29684133,20.1708208 L0.906678439,21.5267881 L0.584905777,22.9118118 L0.331387922,24.3162065 L0.146124875,25.7496577 L0.0388673207,27.2024798 L0,28.6746729 L0.0388673207,30.1565514 L0.146124875,31.619059 L0.331387922,33.0525102 L0.584905777,34.4762759 L0.906678439,35.8612996 L1.29684133,37.2269524 L1.75498818,38.5635487 L2.27177458,39.8710886 L2.85681578,41.1495721 L3.49061042,42.3893136 L4.19265986,43.5903132 L4.94346274,44.7622564 L5.75276974,45.8857722 L6.61083017,46.9704115 L7.51764404,48.0165779 L8.48296202,49.0141825 L9.48728276,49.9730451 L10.5403569,50.8737948 L11.6324338,51.7261171 L12.7635135,52.530012 L13.9433466,53.275794 L15.1524317,53.9731486 L16.4005196,54.6027049 L17.6876103,55.1838337 L19.003953,55.6971642 L20.3496832,56.1522473 L21.7243946,56.539801 L23.1187428,56.8594219 L24.5520937,57.1112444 L25.9951954,57.295134 L27.4675491,57.4015398 L28.9594041,57.4402817" id="Fill-3" fill="#D82331"></path>
                    <path d="M44.9115276,11.027727 L60.2688592,11.027727 L60.2688592,9.46836456 L46.237621,9.46836456 L44.9115276,11.027727" id="Fill-5" fill="#F1AC3D"></path>
                    <path d="M42.6103656,14.4951291 L60.2688592,14.4951291 L60.2688592,12.9357667 L43.5366808,12.9357667 L42.6103656,14.4951291" id="Fill-6" fill="#F1AC3D"></path>
                    <path d="M40.8942447,17.9528457 L60.2688592,17.9528457 L60.2688592,16.3933488 L41.5769282,16.3933488 L40.8942447,17.9528457" id="Fill-7" fill="#F1AC3D"></path>
                    <path d="M39.7144116,21.4201133 L60.2688592,21.4201133 L60.2688592,19.8608854 L40.2019459,19.8608854 L39.7144116,21.4201133" id="Fill-8" fill="#F1AC3D"></path>
                    <path d="M40.3969597,38.1761295 L60.3176126,38.1761295 L60.3176126,36.6167671 L39.9094253,36.6167671 L40.3969597,38.1761295" id="Fill-9" fill="#F1AC3D"></path>
                    <path d="M41.8693134,41.6435316 L60.3176126,41.6435316 L60.3176126,40.0841692 L41.1380119,40.0841692 L41.8693134,41.6435316" id="Fill-10" fill="#F1AC3D"></path>
                    <path d="M43.9364589,45.1012482 L60.3176126,45.1012482 L60.3176126,43.5418858 L42.9516396,43.5418858 L43.9364589,45.1012482" id="Fill-11" fill="#F1AC3D"></path>
                    <path d="M46.7836595,48.5686503 L60.3176126,48.5686503 L60.3176126,46.9996025 L45.4088126,46.9996025 L46.7836595,48.5686503" id="Fill-12" fill="#F1AC3D"></path>
                    <path d="M39.0221128,24.8779644 L60.2688592,24.8779644 L60.2688592,23.318602 L39.3243841,23.318602 L39.0221128,24.8779644" id="Fill-13" fill="#F1AC3D"></path>
                    <path d="M51.9710248,34.7184129 L60.0738455,34.7184129 L60.0738455,33.1590505 L52.2635454,33.1590505 L51.9710248,34.7184129" id="Fill-14" fill="#F1AC3D"></path>
                    <path d="M38.4858251,29.6916484 L40.5919734,29.6916484 L40.5919734,31.2606962 L38.5833319,31.2606962 L38.4858251,29.6916484" id="Fill-16" fill="#F1AC3D"></path>
                    <path d="M34.5562983,27.8029796 L34.4197887,27.7932941 L34.2832791,27.7739232 L34.1565202,27.7545522 L34.0297612,27.7351813 L33.912753,27.7158103 L33.6592351,27.6770684 L33.5227255,27.6576974 L33.3862159,27.6383264 L33.2302049,27.628641 L33.0546926,27.6189555 L32.8694295,27.60927 L32.6646651,27.60927 L32.4403993,27.6189555 L32.1868814,27.6383264 L31.9041115,27.6576974 L31.7090978,27.6867538 L31.5238347,27.7158103 L31.3580731,27.7739232 L31.2118128,27.8320361 L31.0753032,27.8998344 L30.9485442,27.9773183 L30.7632812,28.1613424 L30.7047771,28.2678827 L30.6560236,28.374423 L30.6365223,28.4906488 L30.6365223,28.6068745 L30.6657743,28.7327858 L30.7047771,28.858697 L30.7827826,28.9846083 L30.8802894,29.1105195 L31.0753032,29.2945437 L31.3093196,29.4398259 L31.5823389,29.5657371 L31.8748595,29.6722774 L32.1868814,29.7691322 L32.5086541,29.8756725 L32.8304268,29.9918983 L33.1424487,30.1178095 L33.4349693,30.2824627 L33.7079886,30.4858578 L33.9517557,30.7279948 L34.1565202,31.0282447 L34.3125312,31.396293 L34.410038,31.8321396 L34.4490408,32.3551556 L34.410038,32.9653409 L34.3417832,33.4205585 L34.224775,33.8176632 L34.068764,34.1857114 L33.8737502,34.5053323 L33.6494845,34.7862112 L33.3959666,35.0283483 L33.1229474,35.2414288 L32.8206761,35.425453 L32.5086541,35.5706007 L32.1868814,35.6966464 L31.8553581,35.7935012 L31.5140841,35.8708506 L31.1825607,35.929098 L30.8607881,35.9581544 L30.5390154,35.9775254 L30.2367441,35.9872109 L29.8174646,35.9872109 L29.4274371,35.9775254 L29.0861631,35.9775254 L28.7643904,35.9677054 L28.4718698,35.9581544 L28.2086013,35.9387834 L27.9745848,35.9194125 L27.750319,35.890356 L27.5455546,35.8708506 L27.3602915,35.8322432 L27.1750285,35.8031867 L27.0092668,35.7547593 L26.8435051,35.7160174 L26.5314831,35.5997916 L26.3657215,35.5416787 L26.8045024,33.4011875 L26.8922586,33.4205585 L26.9995161,33.4494804 L27.1360257,33.4883568 L27.3017874,33.5270987 L27.4772998,33.5658407 L27.6723135,33.6045826 L27.8868286,33.6528755 L28.1208451,33.6917519 L28.3646123,33.7304938 L28.6181301,33.7692358 L28.8813986,33.7982922 L29.1544179,33.8273486 L29.4371878,33.8370341 L29.7199577,33.8467196 L30.0027276,33.8467196 L30.2854975,33.8370341 L30.5682675,33.7789212 L30.7925332,33.7014374 L30.9680456,33.5948971 L31.1045552,33.4593004 L31.2020621,33.3237036 L31.2800676,33.168736 L31.328821,33.0137683 L31.3678238,32.8684861 L31.3873251,32.5876071 L31.299569,32.3454701 L31.1338073,32.1517605 L30.8900401,31.9871073 L30.5975195,31.8418251 L30.2562455,31.6965429 L29.8759687,31.5609461 L29.4956919,31.4059785 L29.1056644,31.2316398 L28.7351383,31.0282447 L28.3938643,30.7764222 L28.0818423,30.4761723 L27.8380752,30.108124 L27.6625628,29.6722774 L27.5748066,29.1492614 L27.5845573,28.5293907 L27.6333107,28.1516569 L27.7015656,27.7932941 L27.7990724,27.4639878 L27.9160807,27.1540524 L28.0720916,26.863488 L28.247604,26.6116655 L28.4523684,26.3695285 L28.6961356,26.1564479 L28.9789055,25.9724238 L29.2909275,25.8174561 L29.6419522,25.6721739 L30.0319797,25.5656336 L30.4707606,25.4784642 L30.9485442,25.4106659 L31.4750813,25.3719239 L32.0503718,25.3622385 L32.4111472,25.3622385 L32.7426706,25.3719239 L33.0449419,25.3816094 L33.3179611,25.3912949 L33.5617283,25.4106659 L33.7859941,25.4300368 L33.9810078,25.4494078 L34.1565202,25.4687788 L34.3222818,25.4881497 L34.4587915,25.5172062 L34.5855504,25.5365771 L34.7025586,25.5559481 L34.8000655,25.575319 L34.8879571,25.5850045 L34.9755778,25.6043755 L35.0535833,25.614061 L34.5562983,27.8029796" id="Fill-17" fill="#FFFFFF"></path>
                    <path d="M36.8672111,23.2217472 L39.5681513,23.2217472 L39.1683731,25.5656336 L40.7967378,25.5656336 L40.4457131,27.7545522 L38.7295922,27.7061248 L37.7935263,33.1106231 L37.7837756,33.3043327 L37.8325291,33.4689859 L37.9301714,33.5948971 L38.0567949,33.7014374 L38.2323072,33.7692358 L38.4273209,33.8273486 L38.6418361,33.8660906 L38.8758525,33.8854615 L39.0903676,33.875776 L39.2853814,33.8564051 L39.4608937,33.8273486 L39.6169047,33.7886067 L39.7436637,33.7498648 L39.889924,33.7014374 L39.9094253,33.6917519 L39.5681513,35.4932513 L39.4998965,35.5416787 L39.4316417,35.5804207 L39.3635223,35.6191626 L39.2951321,35.6579045 L39.2268773,35.6869609 L39.1490072,35.7160174 L39.0611156,35.7450738 L38.9733594,35.7741303 L38.8758525,35.8031867 L38.7783457,35.8225577 L38.6613374,35.8419286 L38.5444646,35.8612996 L38.4175703,35.8806706 L38.27131,35.9000415 L38.115299,35.9194125 L37.9495373,35.9387834 L37.2084851,35.9387834 L36.8184576,35.909727 L36.4771836,35.8708506 L36.1651616,35.8128722 L35.9020285,35.7450738 L35.6776273,35.6579045 L35.4924997,35.5610497 L35.3266026,35.4448239 L35.1998436,35.3189127 L35.1024722,35.1833159 L35.034082,35.0186628 L34.9853285,34.8540096 L34.9560765,34.6699855 L34.9463258,34.4665904 L34.9463258,34.2535098 L34.9755778,34.0307437 L35.0048299,33.7886067 L36.8672111,23.2217472" id="Fill-19" fill="#FFFFFF"></path>
                    <path d="M42.9516396,31.4059785 L42.9223875,31.5706316 L42.9126368,31.7449703 L42.9321382,31.9289944 L42.971141,32.1130186 L43.0393958,32.2970427 L43.1174013,32.4713813 L43.2246588,32.6554055 L43.3416671,32.8200586 L43.4781767,32.9847118 L43.624437,33.129994 L43.780448,33.2752762 L43.9559603,33.391502 L44.1314727,33.4980423 L44.3264864,33.5852116 L44.5215002,33.6528755 L44.7165139,33.6917519 L44.9700317,33.7304938 L45.2137989,33.7595503 L45.4673168,33.7886067 L45.7208346,33.8079777 L45.9743525,33.8176632 L46.237621,33.8176632 L46.4911389,33.8079777 L46.7544074,33.7886067 L47.017676,33.7498648 L47.2809445,33.7014374 L47.5539637,33.6433245 L47.8172323,33.5561552 L48.0902515,33.4494804 L48.3730214,33.3333891 L48.6460406,33.1784214 L48.9288105,33.0137683 L48.5387831,35.3963965 L48.2267611,35.5513642 L48.0707501,35.6094771 L47.9244898,35.6674555 L47.7782295,35.7160174 L47.6222185,35.7644448 L47.466343,35.8031867 L47.3004459,35.8322432 L47.1249335,35.8612996 L46.9299198,35.8806706 L46.7251554,35.9000415 L46.5008896,35.9194125 L46.2475071,35.929098 L45.9841032,35.929098 L45.6818319,35.9387834 L45.3600592,35.9387834 L44.8822756,35.929098 L44.3947412,35.8806706 L43.9072069,35.8128722 L43.4196726,35.6966464 L42.9418889,35.5513642 L42.4836066,35.3672056 L42.0448257,35.1252031 L41.6352969,34.8443241 L41.2550201,34.5150178 L40.9234968,34.1179131 L40.6407268,33.672381 L40.4067104,33.1590505 L40.2409487,32.5876071 L40.1336911,31.9386799 L40.1044391,31.2219543 L40.1533279,30.4277449 L40.1921952,30.1178095 L40.2506994,29.7594467 L40.3287049,29.381713 L40.4359624,28.9749228 L40.5822227,28.5584471 L40.7577351,28.1419714 L40.9821363,27.7158103 L41.2550201,27.3090201 L41.5670421,26.9216009 L41.9473189,26.5535526 L42.3763491,26.2242463 L42.8638834,25.9336818 L43.4294232,25.6915448 L44.0632179,25.5172062 L44.7652673,25.4009804 L45.5550729,25.3622385 L45.9353497,25.3719239 L46.3351279,25.4106659 L46.734906,25.4784642 L47.1346842,25.575319 L47.5247117,25.7206013 L47.9049884,25.8949399 L48.2560132,26.1273914 L48.5777858,26.3985849 L48.8703064,26.7278913 L49.1140736,27.1153105 L49.3090873,27.5608426 L49.4455969,28.0741731 L49.5236024,28.6553019 L49.5333531,29.3139146 L49.4650983,30.0500112 L49.318838,30.8635915 L49.2700846,31.4544059 L42.161834,31.4544059 L42.6103656,29.5463662 L46.8811663,29.5463662 L46.9006677,29.3042291 L46.890917,29.0717776 L46.8714157,28.858697 L46.8324129,28.6649874 L46.7641581,28.4809633 L46.6959033,28.3163101 L46.5983964,28.1710279 L46.5008896,28.0354312 L46.3838813,27.9192054 L46.2571224,27.8223506 L46.1108621,27.7351813 L45.9646018,27.6576974 L45.8085908,27.5995845 L45.6525798,27.5608426 L45.4868181,27.5317862 L45.3113058,27.5124152 L45.1260427,27.5221007 L44.9505304,27.5511571 L44.7847687,27.589899 L44.619007,27.6480119 L44.4532453,27.7254958 L44.306985,27.8126651 L44.1607247,27.9192054 L44.0339658,28.0354312 L43.9072069,28.1710279 L43.7901986,28.3163101 L43.6829411,28.4712778 L43.5951849,28.635931 L43.5074287,28.8102696 L43.4391739,29.0039792 L43.3806698,29.1976888 L43.3416671,29.4010839 L42.9516396,31.4059785" id="Fill-21" fill="#FFFFFF"></path>
                    <path d="M66.2070274,26.1467624 L66.0802685,26.078964 L65.9535096,26.0208512 L65.817,25.9530528 L65.6707397,25.8852544 L65.5244794,25.8271415 L65.192956,25.7109158 L65.0174436,25.6528029 L64.8321806,25.6043755 L64.6469175,25.5656336 L64.4421531,25.5268916 L64.2373887,25.4978352 L64.0131229,25.4784642 L63.7888571,25.4590933 L63.0673063,25.4590933 L62.8137884,25.4784642 L62.5505199,25.5075207 L62.2775007,25.5559481 L62.0044814,25.6334319 L61.7314622,25.7399722 L61.458443,25.8755689 L61.1854238,26.0499076 L60.9221552,26.2629882 L60.6686374,26.5148107 L60.4248702,26.8247461 L60.1908537,27.1831088 L59.9763386,27.60927 L59.7715742,28.093544 L59.5863111,28.635931 L59.4303002,29.2558017 L59.371796,29.604479 L59.3327933,29.9434709 L59.3132919,30.2824627 L59.3230426,30.611769 L59.3522947,30.9410754 L59.4205495,31.2510108 L59.5083056,31.5415752 L59.6155632,31.8321396 L59.7618235,32.0936476 L59.9373359,32.3454701 L60.1421003,32.5682361 L60.3761168,32.7716312 L60.6393853,32.9458354 L60.9416566,33.0912521 L61.2731799,33.2171634 L61.643706,33.3043327 L61.770465,33.3333891 L61.9167253,33.3624456 L62.0922376,33.3818165 L62.2872514,33.4011875 L62.5017665,33.4205585 L62.9697994,33.4205585 L63.2135666,33.4011875 L63.4670845,33.372131 L63.7206023,33.3237036 L63.9643695,33.2559053 L64.2081366,33.1784214 L64.4519038,33.0718811 L64.6761696,32.9458354 L64.880934,32.7910022 L65.0759478,32.6166636 L64.6371669,35.2026869 L64.5786627,35.2511143 L64.5201586,35.3092272 L64.4421531,35.3770256 L64.3543969,35.4351384 L64.2471394,35.5126223 L64.1106298,35.5804207 L63.9546188,35.648219 L63.7791064,35.7063319 L63.5548406,35.7741303 L63.3013228,35.8225577 L63.0088022,35.8612996 L62.6675281,35.9000415 L62.2872514,35.9194125 L61.8484705,35.929098 L61.3511854,35.9194125 L60.805147,35.890356 L60.3566154,35.8419286 L59.9080838,35.7450738 L59.4595522,35.5997916 L59.0110206,35.406082 L58.5819904,35.1736305 L58.1724616,34.883066 L57.7824341,34.5440742 L57.4216587,34.1565205 L57.099886,33.7208084 L56.8268668,33.2365343 L56.5928503,32.6941474 L56.417338,32.1033331 L56.3003297,31.4544059 L56.261327,30.7667367 L56.2808283,30.0112692 L56.3880859,29.2073743 L56.4660914,28.8102696 L56.5538476,28.4228504 L56.6513544,28.0451166 L56.7488613,27.6867538 L56.8561189,27.347762 L56.9828778,27.0087702 L57.1096367,26.6891493 L57.2461463,26.3888994 L57.3924066,26.0886495 L57.5386669,25.8077706 L57.7044286,25.5365771 L57.879941,25.2847546 L58.0554533,25.0426176 L58.2504671,24.8101661 L58.4454808,24.5970855 L58.6502452,24.3936904 L58.874511,24.1999808 L59.0987768,24.0159566 L59.3327933,23.8513035 L59.5765605,23.6963358 L59.839829,23.5510536 L60.1030975,23.4251423 L60.3761168,23.3089165 L60.6588867,23.2023763 L60.961158,23.1055215 L61.2634293,23.0280376 L61.5754512,22.9602392 L61.9069746,22.9021264 L62.2384979,22.8535644 L62.5895226,22.814957 L62.9405474,22.7955861 L63.3110735,22.7859006 L63.6230954,22.7955861 L63.9253667,22.814957 L64.2178873,22.843879 L64.5104079,22.8827554 L64.7834272,22.9214973 L65.0466957,22.9796102 L65.3002136,23.0280376 L65.53423,23.0861505 L65.7584958,23.1442634 L65.9535096,23.2023763 L66.1387726,23.2604891 L66.2947836,23.318602 L66.4312932,23.3670294 L66.5483015,23.4057714 L66.6360576,23.4445133 L66.6945618,23.4638842 L66.2070274,26.1467624" id="Fill-23" fill="#FFFFFF"></path>
                    <path d="M90.2132181,35.9387834 L87.5122779,35.9387834 L87.7074271,34.8635606 L87.7074271,34.7668403 L87.5512807,34.9604154 L87.385519,35.1348885 L87.2197573,35.2898562 L87.044245,35.425453 L86.8687326,35.5513642 L86.6932202,35.6579045 L86.5177079,35.7450738 L86.3324448,35.8322432 L86.1471818,35.9000415 L85.9619187,35.9484689 L85.7766557,35.9968963 L85.5816419,36.0259528 L85.3866282,36.0550092 L85.2013652,36.0742457 L85.0063514,36.0840657 L84.8113377,36.0840657 L84.304302,36.0453237 L83.836269,35.9387834 L83.4072388,35.7741303 L83.0172113,35.5513642 L82.6661866,35.2704853 L82.3541646,34.9411789 L82.0811454,34.5828161 L81.8471289,34.176026 L81.6521152,33.7401793 L81.4961042,33.2849617 L81.3888467,32.8103732 L81.3108412,32.3164136 L81.2815891,31.8224541 L81.2913398,31.3188091 L81.3400932,30.8248496 L81.4278494,30.3308901 L81.5741097,29.7594467 L81.7496221,29.2170598 L81.9543865,28.7231003 L82.1981536,28.2581972 L82.4516715,27.8223506 L82.7441921,27.4349313 L83.0464634,27.086254 L83.3682361,26.7666332 L83.7095101,26.4857542 L84.0702855,26.2436172 L84.440947,26.0305366 L84.8113377,25.8658835 L85.2013652,25.7302867 L85.5913926,25.6431174 L85.9814201,25.5850045 L86.3811983,25.5656336 L86.6639682,25.575319 L86.9369874,25.6043755 L87.1905053,25.6528029 L87.4245217,25.7206013 L87.6487875,25.7980851 L87.8438013,25.8852544 L88.038815,25.9917947 L88.2143274,26.098335 L88.3703383,26.2145608 L88.5167341,26.340472 L88.6433576,26.4663833 L88.7603658,26.5922945 L88.8578727,26.7182058 L88.9456289,26.844117 L89.0236344,26.9603428 L89.0821385,27.0765686 L89.7646865,23.2701746 L92.4168733,23.2701746 L90.2132181,35.9387834" id="Fill-25" fill="#FFFFFF"></path>
                    <path d="M85.796157,33.5948971 L86.0693117,33.5755261 L86.3226941,33.5174133 L86.5567106,33.4494804 L86.7809764,33.3430746 L86.9857408,33.2268488 L87.1807546,33.0815666 L87.3660176,32.9169135 L87.5317793,32.7425748 L87.6780396,32.5488652 L87.8145492,32.3357846 L87.9413081,32.1130186 L88.0485657,31.880567 L88.1460725,31.63843 L88.224078,31.3866075 L88.2923329,31.1250995 L88.3410863,30.8635915 L88.3898397,30.5923981 L88.4190918,30.3115191 L88.4190918,30.0500112 L88.4093411,29.7788177 L88.380089,29.5269952 L88.3410863,29.2848582 L88.2728315,29.0524066 L88.194826,28.8296406 L88.0974545,28.635931 L87.9803109,28.4519068 L87.8535519,28.2969391 L87.7074271,28.1613424 L87.54153,28.0451166 L87.3660176,27.9676328 L87.1807546,27.9192054 L86.9759901,27.8998344 L86.7127216,27.9192054 L86.4690899,27.9579473 L86.2446886,28.0354312 L86.0204228,28.132286 L85.8254091,28.2581972 L85.6303954,28.4131649 L85.4646337,28.5778181 L85.298872,28.7618422 L85.1526117,28.9749228 L85.0161021,29.1976888 L84.8893432,29.4301404 L84.7820856,29.6819629 L84.6845788,29.9434709 L84.6065733,30.2049788 L84.5285678,30.4858578 L84.4701991,30.7667367 L84.4213102,31.1928979 L84.440947,31.657801 L84.5090664,32.1323895 L84.6358253,32.5876071 L84.8308391,32.9847118 L85.0843569,33.3043327 L85.4061296,33.5174133 L85.796157,33.5948971" id="Fill-27" fill="#F1AC3D"></path>
                    <path d="M25.9171899,33.7886067 L25.5271624,35.9387834 L23.0699894,35.9387834 L23.1382442,35.5416787 L23.1869976,35.1833159 L23.2260003,34.9121225 L23.2650031,34.7668403 L23.1284935,34.921808 L22.9724825,35.0767757 L22.7873549,35.2220579 L22.5825905,35.3576546 L22.3484385,35.4932513 L22.1046714,35.6094771 L21.8511535,35.7257029 L21.587885,35.8225577 L21.3051151,35.909727 L21.0223451,35.9775254 L20.7395752,36.0356383 L20.4470546,36.0742457 L20.1642847,36.0937511 L19.8815148,36.1034366 L19.6084956,36.0742457 L19.345227,36.0356383 L19.003953,35.9484689 L18.691931,35.8516141 L18.4190472,35.7257029 L18.1751446,35.5804207 L17.9606295,35.425453 L17.7656158,35.2511143 L17.6097402,35.0670902 L17.4730952,34.8733806 L17.3560869,34.6699855 L17.2585801,34.4567704 L17.1805746,34.2438243 L17.1220705,34.0307437 L17.0830677,33.8079777 L17.0538157,33.5852116 L17.0343143,33.372131 L17.0343143,33.1590505 L17.0635663,32.7813167 L17.1220705,32.4229539 L17.2195773,32.0839621 L17.3463363,31.7546558 L17.5023472,31.4447204 L17.6778596,31.1638414 L17.882624,30.892648 L18.1167759,30.650511 L18.3604077,30.4277449 L18.6335623,30.2243498 L18.9161968,30.0403257 L19.2087174,29.885358 L19.5207394,29.7497612 L19.8426475,29.643221 L20.1740354,29.5560516 L20.5153094,29.4979387 L20.5348108,29.4979387 L20.5835642,29.4882533 L20.6519545,29.4785678 L20.759212,29.4688823 L20.8760848,29.4495113 L21.0125945,29.4398259 L21.1588548,29.4204549 L21.6561398,29.362342 L21.8316521,29.3526565 L21.9876631,29.3332856 L22.1436741,29.3236001 L22.2899344,29.3139146 L22.426444,29.3042291 L22.7579674,29.3042291 L22.9921193,29.3139146 L23.206499,29.3236001 L23.4210141,29.3236001 L23.5965264,29.3332856 L23.7330361,29.3429711 L23.8305429,29.3526565 L23.859795,29.3526565 L23.8792964,29.2848582 L23.9378005,29.1105195 L23.9865539,28.9071244 L24.0061907,28.7231003 L23.9670525,28.5100197 L23.8792964,28.3163101 L23.7622881,28.1419714 L23.6062771,27.9966892 L23.4210141,27.870778 L23.2162497,27.7836087 L22.9822332,27.7254958 L22.7287153,27.7061248 L22.4556961,27.6964393 L22.1631755,27.6867538 L21.8609042,27.6867538 L21.5488822,27.6964393 L21.2271096,27.7158103 L20.6030656,27.7739232 L20.3007943,27.8126651 L20.0082737,27.851407 L19.7255038,27.8998344 L19.471986,27.9482618 L19.2381049,27.9966892 L19.0234544,28.0548021 L18.847942,28.112915 L18.7114324,28.1807134 L18.6041748,28.2388263 L19.2964736,25.9046254 L19.5109887,25.8174561 L19.7255038,25.7399722 L19.9595203,25.6721739 L20.4275533,25.575319 L20.6810711,25.5365771 L20.934589,25.4978352 L21.1978575,25.4784642 L21.4710122,25.4590933 L21.7536467,25.4494078 L22.0461673,25.4397223 L22.9822332,25.4397223 L23.3235072,25.4494078 L23.6647813,25.4590933 L23.9378005,25.4784642 L24.2303211,25.5268916 L24.5325924,25.59469 L24.8446143,25.6818593 L25.1468856,25.7980851 L25.4394062,25.9336818 L25.7319268,26.098335 L26.0049461,26.2823591 L26.2487132,26.4954397 L26.4632283,26.7278913 L26.6582421,26.9893992 L26.8045024,27.2799637 L26.9020092,27.589899 L26.9605134,27.9192054 L26.9605134,28.2872537 L26.9020092,28.6746729 L25.9171899,33.7886067" id="Fill-28" fill="#FFFFFF"></path>
                    <path d="M23.5672744,31.2606962 L23.5575237,31.2122688 L23.5185209,31.1638414 L23.4600168,31.134785 L23.36251,31.115414 L23.2552524,31.0960431 L23.1284935,31.0863576 L22.8359729,31.0863576 L22.6799619,31.0960431 L22.5142002,31.115414 L22.3581892,31.134785 L22.2021782,31.154156 L22.0559179,31.1735269 L21.9194083,31.2025834 L21.8024001,31.2316398 L21.6951425,31.2606962 L21.6268877,31.2800672 L21.5488822,31.3091236 L21.4416247,31.3478656 L21.3343671,31.396293 L21.2076082,31.4544059 L21.0808493,31.5222042 L20.9443397,31.5900026 L20.8175807,31.6674864 L20.6810711,31.7643412 L20.5544476,31.8611961 L20.4373039,31.9774218 L20.3300464,32.0936476 L20.2325395,32.2195588 L20.1642847,32.3551556 L20.1057806,32.5101233 L20.0765285,32.665091 L20.0667778,32.9943973 L20.1155313,33.2559053 L20.2130382,33.4494804 L20.3397971,33.5948971 L20.4860574,33.6917519 L20.6519545,33.7498648 L20.80783,33.7789212 L20.9639765,33.7886067 L21.2563616,33.7789212 L21.5196302,33.7498648 L21.7732835,33.7111229 L21.9974138,33.6528755 L22.1924276,33.5852116 L22.3776906,33.4980423 L22.5434523,33.410873 L22.6897126,33.3043327 L22.8164715,33.2074779 L22.9334797,33.0912521 L23.0309866,32.9847118 L23.1089921,32.8684861 L23.1772469,32.7522603 L23.235751,32.6360345 L23.2845045,32.5294942 L23.3137565,32.4229539 L23.391762,32.142075 L23.4600168,31.8224541 L23.5185209,31.5125187 L23.5672744,31.2606962" id="Fill-30" fill="#D82331"></path>
                    <path d="M5.40174502,35.9387834 L2.74955823,35.9387834 L4.96296412,23.2217472 L9.57503894,23.2217472 L10.0138198,30.7667367 L13.2022944,23.2217472 L18.0192691,23.2217472 L15.7569743,35.9387834 L13.1047875,35.9387834 L14.7819056,26.4373268 L14.6746481,26.4373268 L10.7061186,35.9387834 L7.71265777,35.9387834 L7.6931564,35.5416787 L7.62490159,34.4859613 L7.53714541,32.9847118 L7.34213168,29.5269952 L7.2543755,28.0063747 L7.18612069,26.9022299 L7.16661932,26.4373268 L7.02035901,26.4373268 L5.40174502,35.9387834" id="Fill-31" fill="#FFFFFF"></path>
                    <path d="M74.3099835,33.7886067 L73.9102054,35.9387834 L71.462783,35.9387834 L71.4822844,35.5416787 L71.4920351,35.1930014 L71.4920351,34.9314935 L71.511401,34.8152677 L71.3846421,34.9604154 L71.2383818,35.1058321 L71.0630048,35.2414288 L70.8678557,35.3770256 L70.6632267,35.5029368 L70.4290748,35.6191626 L70.1853076,35.7353884 L69.9415404,35.8322432 L69.6782719,35.909727 L69.4053881,35.9872109 L69.1322334,36.0356383 L68.8592142,36.0742457 L68.5764443,36.0937511 L68.3034251,36.1034366 L68.0401565,36.0742457 L67.776888,36.0356383 L67.4258633,35.9484689 L67.1138413,35.8516141 L66.8408221,35.7257029 L66.5873042,35.5804207 L66.3727891,35.425453 L66.187526,35.2511143 L66.0315151,35.0670902 L65.8950054,34.8733806 L65.7779972,34.6699855 L65.690241,34.4567704 L65.6122355,34.2438243 L65.5634821,34.0307437 L65.5244794,33.8079777 L65.4952273,33.5852116 L65.4757259,33.372131 L65.4757259,33.1590505 L65.4952273,32.7813167 L65.5537314,32.4229539 L65.6414876,32.0839621 L65.7682465,31.7546558 L65.9145068,31.4447204 L66.0997699,31.1638414 L66.3045343,30.892648 L66.5288001,30.650511 L66.7823179,30.4277449 L67.0455865,30.2243498 L67.3283564,30.0403257 L67.6306277,29.885358 L67.932899,29.7497612 L68.2546716,29.643221 L68.5764443,29.5560516 L68.9079676,29.4979387 L68.927469,29.4979387 L68.9762225,29.4882533 L69.0444773,29.4785678 L69.1419841,29.4688823 L69.2687431,29.4495113 L69.4053881,29.4398259 L69.551513,29.4204549 L69.707524,29.4010839 L69.8734211,29.381713 L70.048798,29.362342 L70.2145597,29.3526565 L70.3803213,29.3332856 L70.5363323,29.3236001 L70.6729774,29.3139146 L70.8093516,29.3042291 L71.1506256,29.3042291 L71.3846421,29.3139146 L71.6089079,29.3236001 L71.823423,29.3236001 L72.008686,29.3332856 L72.164697,29.3429711 L72.2525886,29.3526565 L72.2915914,29.3526565 L72.3109573,29.2848582 L72.3402094,29.1105195 L72.3694614,28.9071244 L72.3889628,28.7231003 L72.3499601,28.5100197 L72.27209,28.3163101 L72.1451956,28.1419714 L71.9989353,27.9966892 L71.823423,27.870778 L71.6186586,27.7836087 L71.4041434,27.7254958 L71.170127,27.7061248 L70.8971077,27.6964393 L70.6045871,27.6867538 L70.3023158,27.6867538 L69.9902939,27.6964393 L69.6685212,27.7158103 L69.0444773,27.7739232 L68.742206,27.8126651 L68.4496854,27.851407 L68.1669155,27.8998344 L67.9133976,27.9482618 L67.6793811,27.9966892 L67.464866,28.0548021 L67.2893536,28.112915 L67.152844,28.1807134 L67.0455865,28.2388263 L67.7281346,25.9046254 L67.9426497,25.8174561 L68.1669155,25.7399722 L68.3911812,25.6721739 L68.6251977,25.6237464 L68.8689649,25.575319 L69.1127321,25.5365771 L69.3662499,25.4978352 L69.6295185,25.4784642 L69.9025377,25.4590933 L70.1853076,25.4494078 L70.4680775,25.4397223 L71.3846421,25.4397223 L71.7161654,25.4494078 L72.0476888,25.4590933 L72.320708,25.4784642 L72.6132286,25.5268916 L72.9154999,25.59469 L73.2275219,25.6818593 L73.5297932,25.7980851 L73.8320644,25.9336818 L74.124585,26.098335 L74.3976043,26.2823591 L74.6413714,26.4954397 L74.8656372,26.7278913 L75.060651,26.9893992 L75.2069113,27.2799637 L75.3141688,27.589899 L75.3824236,27.9192054 L75.3824236,28.2872537 L75.3336702,28.6746729 L74.3099835,33.7886067" id="Fill-33" fill="#FFFFFF"></path>
                    <path d="M71.9501819,31.2606962 L71.9306805,31.2025834 L71.8918132,31.154156 L71.823423,31.1250995 L71.7259161,31.0960431 L71.6186586,31.0863576 L71.4920351,31.0766721 L71.3456393,31.0766721 L71.199379,31.0863576 L71.0435035,31.1057286 L70.8873571,31.1250995 L70.7313461,31.1444705 L70.5850858,31.1638414 L70.4388255,31.1928979 L70.3120665,31.2122688 L70.1853076,31.2413253 L70.0878007,31.2606962 L70.0195459,31.2703817 L69.9415404,31.2994382 L69.844169,31.3284946 L69.736776,31.3672365 L69.6100171,31.4253494 L69.3564992,31.5512607 L69.1029814,31.7255993 L68.9762225,31.8321396 L68.8689649,31.9386799 L68.7617073,32.0645911 L68.6739512,32.2001879 L68.6056964,32.3454701 L68.5471922,32.5004378 L68.5179402,32.665091 L68.5081895,32.9943973 L68.5569429,33.2559053 L68.6349484,33.4494804 L68.7519567,33.5948971 L68.898217,33.6917519 L69.0639786,33.7498648 L69.2297403,33.7789212 L69.395502,33.7886067 L69.6880226,33.7789212 L69.9610418,33.7498648 L70.2145597,33.7014374 L70.4388255,33.633639 L70.653476,33.5561552 L70.8386036,33.4689859 L71.014116,33.372131 L71.170127,33.2559053 L71.3066366,33.1492305 L71.4236448,33.0234537 L71.5309024,32.907228 L71.6186586,32.7813167 L71.6869134,32.665091 L71.7356668,32.5488652 L71.7746695,32.4326394 L71.8039216,32.3260991 L71.8430598,32.0549057 L71.8918132,31.7740267 L71.9306805,31.5028333 L71.9501819,31.2606962" id="Fill-49" fill="#F1AC3D"></path>
                    <path d="M92.0365966,34.6118726 L92.0560979,34.3891065 L92.1341034,34.1275985 L92.270613,33.895147 L92.4363747,33.6917519 L92.6411391,33.5270987 L92.8751556,33.410873 L93.1286735,33.3333891 L93.4016927,33.3043327 L93.6747119,33.3333891 L93.9282298,33.410873 L94.1622463,33.5270987 L94.3670107,33.6917519 L94.5327724,33.895147 L94.669282,34.1275985 L94.7472875,34.3891065 L94.7667888,34.6118726 L94.4742682,34.6118726 L94.4645175,34.4375339 L94.4060134,34.2244534 L94.3085066,34.0307437 L94.1817476,33.8660906 L94.0257366,33.7304938 L93.8404736,33.633639 L93.6259585,33.5658407 L93.4016927,33.5464697 L93.1774269,33.5658407 L92.9629118,33.633639 L92.7776487,33.7304938 L92.6216378,33.8660906 L92.4948788,34.0307437 L92.397372,34.2244534 L92.3388678,34.4375339 L92.3193665,34.6118726 L92.0365966,34.6118726" id="Fill-50" fill="#FFFFFF"></path>
                    <path d="M92.9141584,34.6118726 L92.9141584,34.0307437 L93.4504461,34.0307437 L93.5674544,34.0404292 L93.6747119,34.0598002 L93.7527174,34.0888566 L93.8209722,34.1275985 L93.8697257,34.1857114 L93.9087284,34.2438243 L93.9282298,34.3116227 L93.9379805,34.379421 L93.9282298,34.4665904 L93.9087284,34.5343887 L93.8794763,34.5925016 L93.859975,34.6118726 L93.4504461,34.6118726 L93.4894489,34.6021871 L93.5577037,34.5925016 L93.6162078,34.5731307 L93.6649612,34.5537597 L93.703964,34.5247033 L93.7234654,34.4956468 L93.7429667,34.4472194 L93.7429667,34.379421 L93.733216,34.3309936 L93.7137147,34.2922517 L93.6552105,34.2535098 L93.6064571,34.2438243 L93.5577037,34.2341388 L93.1579255,34.2341388 L93.1579255,34.6118726 L92.9141584,34.6118726" id="Fill-51" fill="#FFFFFF"></path>
                    <path d="M92.0365966,34.6118726 L92.0268459,34.6699855 L92.0560979,34.9508644 L92.1341034,35.2123724 L92.270613,35.4448239 L92.4363747,35.6385335 L92.6411391,35.8031867 L92.8751556,35.929098 L93.1286735,36.0065818 L93.4016927,36.0356383 L93.6747119,36.0065818 L93.9282298,35.929098 L94.1622463,35.8031867 L94.3670107,35.6385335 L94.5327724,35.4448239 L94.669282,35.2123724 L94.7472875,34.9508644 L94.7765395,34.6699855 L94.7667888,34.6118726 L94.4742682,34.6118726 L94.4840189,34.6699855 L94.4645175,34.902437 L94.4060134,35.1155176 L94.3085066,35.2995417 L94.1817476,35.4640604 L94.0257366,35.5997916 L93.8404736,35.7063319 L93.6259585,35.7741303 L93.4016927,35.7935012 L93.1774269,35.7741303 L92.9629118,35.7063319 L92.7776487,35.5997916 L92.6216378,35.4640604 L92.4948788,35.2995417 L92.397372,35.1155176 L92.3388678,34.902437 L92.3193665,34.6699855 L92.3193665,34.6118726 L92.0365966,34.6118726" id="Fill-52" fill="#FFFFFF"></path>
                    <path d="M92.9141584,34.6118726 L92.9141584,35.2026869 L93.1579255,35.2026869 L93.1579255,34.7184129 L93.4016927,34.7184129 L93.6942133,35.2026869 L93.889227,35.2026869 L93.5967064,34.7184129 L93.6649612,34.7184129 L93.733216,34.6990419 L93.7918556,34.679671 L93.8404736,34.640929 L93.859975,34.6118726 L93.4504461,34.6118726 L93.4016927,34.6215581 L93.1579255,34.6215581 L93.1579255,34.6118726 L92.9141584,34.6118726" id="Fill-53" fill="#FFFFFF"></path>
                    <path d="M75.0411496,35.9387834 L77.7908432,35.9387834 L78.775798,30.4277449 L78.8146654,30.2146643 L78.9316736,29.7885032 L79.0096791,29.5754226 L79.107186,29.362342 L79.2241942,29.1589469 L79.3509531,28.9652373 L79.5069641,28.7812132 L79.6824765,28.61656 L79.8774902,28.4615923 L80.101756,28.3163101 L80.3552739,28.2000843 L80.6380438,28.1032295 L80.9500657,28.0257457 L81.2913398,27.9676328 L81.6716166,27.9482618 L81.9153837,27.9482618 L82.3541646,25.4590933 L82.0811454,25.4784642 L81.8178769,25.5075207 L81.5741097,25.5559481 L81.3400932,25.6237464 L81.1255781,25.7012303 L80.9208137,25.7980851 L80.7258,25.9046254 L80.5405369,26.0208512 L80.3650245,26.1564479 L80.1992629,26.2920446 L79.8872409,26.60198 L79.7409806,26.7666332 L79.5948557,26.9506573 L79.44846,27.124996 L79.3119504,27.3187056 L79.6046064,25.5656336 L76.864528,25.5656336 L75.0411496,35.9387834" id="Fill-55" fill="#FFFFFF"></path>
                    <path d="M49.2213312,35.9387834 L52.0197782,35.9387834 L52.9558442,30.4277449 L52.9948469,30.2146643 L53.0923538,29.8078741 L53.1606086,29.6141645 L53.2386141,29.4204549 L53.3361209,29.2364308 L53.4531292,29.0620921 L53.5896388,28.8974389 L53.7456498,28.7521567 L53.9211622,28.6068745 L54.1356773,28.4906488 L54.3696937,28.3841085 L54.642713,28.2969391 L54.9449843,28.2194553 L55.2765076,28.1710279 L55.6567844,28.1419714 L55.6860364,28.1419714 L55.7250392,28.1516569 L55.7737926,28.1613424 L55.8225461,28.1613424 L55.8712995,28.1710279 L55.9103022,28.1807134 L55.9395543,28.1903988 L55.949305,28.1903988 L55.9883077,28.0354312 L56.0273105,27.8610925 L56.0760639,27.6480119 L56.1443187,27.3961894 L56.2125735,27.124996 L56.3880859,26.582609 L56.4660914,26.3985849 L56.6611051,26.0305366 L56.758612,25.8658835 L56.8463682,25.7206013 L56.914623,25.6043755 L56.9633764,25.5365771 L56.9828778,25.5075207 L56.9731271,25.5075207 L56.9341243,25.4978352 L56.8853709,25.4881497 L56.8171161,25.4784642 L56.7488613,25.4784642 L56.6708558,25.4687788 L56.602601,25.4590933 L56.5343462,25.4590933 L56.2320749,25.4784642 L55.9590557,25.5075207 L55.7055378,25.5559481 L55.4715213,25.614061 L55.2472555,25.6915448 L55.0424911,25.7883996 L54.8572281,25.8852544 L54.6817157,26.0014802 L54.515954,26.1273914 L54.3599431,26.2726737 L54.2136828,26.4179559 L53.9211622,26.7472622 L53.7846525,26.9312864 L53.4921319,27.3187056 L53.8431567,25.5656336 L51.0447096,25.5656336 L49.2213312,35.9387834" id="Fill-57" fill="#FFFFFF"></path>
                    <path d="M49.2213312,35.9387834 L52.0197782,35.9387834 L52.9558442,30.4277449 L52.9948469,30.2146643 L53.0923538,29.8078741 L53.1606086,29.6141645 L53.2386141,29.4204549 L53.3361209,29.2364308 L53.4531292,29.0620921 L53.5896388,28.8974389 L53.7456498,28.7521567 L53.9211622,28.6068745 L54.1356773,28.4906488 L54.3696937,28.3841085 L54.642713,28.2969391 L54.9449843,28.2194553 L55.2765076,28.1710279 L55.6567844,28.1419714 L55.6860364,28.1419714 L55.7250392,28.1516569 L55.7737926,28.1613424 L55.8225461,28.1613424 L55.8712995,28.1710279 L55.9103022,28.1807134 L55.9395543,28.1903988 L55.949305,28.1903988 L55.9883077,28.0354312 L56.0273105,27.8610925 L56.0760639,27.6480119 L56.1443187,27.3961894 L56.2125735,27.124996 L56.3880859,26.582609 L56.4660914,26.3985849 L56.6611051,26.0305366 L56.758612,25.8658835 L56.8463682,25.7206013 L56.914623,25.6043755 L56.9633764,25.5365771 L56.9828778,25.5075207 L56.9731271,25.5075207 L56.9341243,25.4978352 L56.8853709,25.4881497 L56.8171161,25.4784642 L56.7488613,25.4784642 L56.6708558,25.4687788 L56.602601,25.4590933 L56.5343462,25.4590933 L56.2320749,25.4784642 L55.9590557,25.5075207 L55.7055378,25.5559481 L55.4715213,25.614061 L55.2472555,25.6915448 L55.0424911,25.7883996 L54.8572281,25.8852544 L54.6817157,26.0014802 L54.515954,26.1273914 L54.3599431,26.2726737 L54.2136828,26.4179559 L53.9211622,26.7472622 L53.7846525,26.9312864 L53.4921319,27.3187056 L53.8431567,25.5656336 L51.0447096,25.5656336 L49.2213312,35.9387834" id="Stroke-58" stroke="#FFFFFF" stroke-width="0.215"></path>
                    <path id="Fill-61" fill="#F1AC3D" d="M92.0268459,46.3409898 L92.0560979,46.1279092 L92.3388678,46.1279092 L92.3388678,46.1375947 L92.3193665,46.3409898 L92.0268459,46.3409898"></path>
                </g>
                <g id="Group" transform="translate(126.211626, 13.924917)" sketch:type="MSShapeGroup">
                    <path d="M46.3726528,33.7981778 L37.6820775,33.7981778 L43.1135755,0.406410605 L51.8050437,0.406410605 L46.3726528,33.7981778" id="Fill-1" fill="#005B9C"></path>
                    <path d="M30.3710294,0.406410605 L22.0849368,23.3726293 L21.1054278,18.4269248 L21.1063207,18.4287112 L18.1811872,3.41384909 C18.1811872,3.41384909 17.8284925,0.406410605 14.0586776,0.406410605 L0.362516551,0.406410605 L0.202687825,0.970919402 C0.202687825,0.970919402 4.39216481,1.84269248 9.29238853,4.78939267 L16.8427332,33.7981778 L25.8976109,33.7981778 L39.724135,0.406410605 L30.3710294,0.406410605" id="Fill-2" fill="#005B9C"></path>
                    <path d="M89.1638922,21.9863671 L93.731065,9.48946433 L96.2999322,21.9863671 L89.1638922,21.9863671 L89.1638922,21.9863671 Z M98.7268288,33.7981778 L106.706657,33.7981778 L99.7491969,0.406410605 L92.7622707,0.406410605 C89.5353377,0.406410605 88.7504804,2.894894 88.7504804,2.894894 L75.7900673,33.7981778 L84.8476237,33.7981778 L86.6602064,28.8390752 L97.7080322,28.8390752 L98.7268288,33.7981778 L98.7268288,33.7981778 Z" id="Fill-3" fill="#005B9C"></path>
                    <path d="M76.4695626,8.4363696 L77.7089049,1.26478553 C77.7089049,1.26478553 73.8819445,-0.191146966 69.8924766,-0.191146966 C65.5797797,-0.191146966 55.3391336,1.69531281 55.3391336,10.8632215 C55.3391336,19.4907381 67.3584324,19.5979233 67.3584324,24.1273918 C67.3584324,28.6568603 56.577583,27.847612 53.0202778,24.9902328 L51.7273616,32.4869453 C51.7273616,32.4869453 55.607003,34.3734051 61.5376309,34.3734051 C67.4673659,34.3734051 76.4150958,31.2998691 76.4150958,22.9412088 C76.4150958,14.2592064 64.2868636,13.4508512 64.2868636,9.67614525 C64.2868636,5.90143927 72.7506428,6.38645237 76.4695626,8.4363696" id="Fill-4" fill="#005B9C"></path>
                    <path d="M21.1063207,18.4287112 L18.1811872,3.41384909 C18.1811872,3.41384909 17.8284925,0.406410605 14.0586776,0.406410605 L0.362516551,0.406410605 L0.202687825,0.970919402 C0.202687825,0.970919402 6.7860241,2.33663768 13.101491,7.44937242 C19.1374809,12.3370182 21.1063207,18.4287112 21.1063207,18.4287112" id="Fill-5" fill="#EF9F3F"></path>
                </g>
            </g>
        </g>
    </g>
</svg>