<?xml version="1.0" encoding="UTF-8" standalone="no"?>
<svg width="56px" height="54px" viewBox="0 0 56 54" version="1.1" xmlns="http://www.w3.org/2000/svg" xmlns:xlink="http://www.w3.org/1999/xlink" xmlns:sketch="http://www.bohemiancoding.com/sketch/ns">
    <!-- Generator: Sketch 3.0.2 (7799) - http://www.bohemiancoding.com/sketch -->
    <title>cart</title>
    <description>Created with Sketch.</description>
    <defs></defs>
    <g id="Welcome" stroke="none" stroke-width="1" fill="none" fill-rule="evenodd" sketch:type="MSPage">
        <g id="Index-page" sketch:type="MSArtboardGroup" transform="translate(-562.000000, -19.000000)" fill="#D8D8D8">
            <g id="Header" sketch:type="MSLayerGroup">
                <g id="cart" transform="translate(563.000000, 19.000000)" sketch:type="MSShapeGroup">
                    <path d="M2.41750485,18.2368273 C5.81320432,18.3766963 8.53227311,18.5597954 14.6532701,19.025329 C20.7928457,19.4922755 23.522923,19.6760684 26.9386624,19.8165247 C30.3986765,19.6760671 33.1290363,19.4922545 39.2682274,19.0253289 C45.3893936,18.5597743 48.1080618,18.3766949 51.5034917,18.2368273 L50.9460249,17.6323736 C50.1522592,24.1976108 49.768762,27.3694524 49.3584227,30.7629833 C48.7665459,35.6578402 48.2573301,39.8683381 47.7703928,43.8935714 C47.5706996,45.5482336 46.7617985,47.0281058 45.5048052,48.1070048 C44.2303981,49.2009814 42.5697557,49.8159138 40.8186275,49.8159138 L13.1023675,49.8159138 C11.3518146,49.8159138 9.69160883,49.2008137 8.41612778,48.1063819 C7.15997274,47.0282761 6.35083104,45.5478264 6.1506005,43.8929881 C5.70962451,40.2457144 5.3567676,37.3278592 4.56278615,30.7626877 C3.76880609,24.1975277 3.41595012,21.2796802 2.97497014,17.6323736 L2.41750485,18.2368273 L2.41750485,18.2368273 Z M6.21839381,50.6451916 C8.10635294,52.2665244 10.5456715,53.1751648 13.1029412,53.1751648 L40.8192011,53.1751648 C43.3761398,53.1751648 45.8154335,52.2667498 47.7043279,50.6457563 C49.5953587,49.022441 50.8164781,46.7882713 51.118887,44.2912788 C52.0333673,36.7264279 52.7652274,30.6746376 54.4121284,17.0581037 C54.4805829,16.4908097 54.3148673,15.9613659 53.9354261,15.5330554 C53.5568698,15.1057439 53.0521325,14.8764444 52.4804004,14.871784 C49.0633714,14.8427159 46.3249429,14.6888353 40.1577447,14.2442553 C39.9575659,14.2298249 39.9575659,14.2298249 39.7573634,14.2154016 C33.603221,13.7721735 30.5503704,13.610516 26.9613579,13.610516 C23.3721062,13.610516 20.3192189,13.7721727 14.1650657,14.2154016 C13.9648631,14.2298249 13.9648631,14.2298249 13.7646844,14.2442553 C7.59750047,14.6888342 4.85900447,14.8427158 1.44155069,14.8717856 C0.870009809,14.8764444 0.365272479,15.1057439 -0.0132838039,15.5330554 C-0.392638129,15.9612678 -0.557882568,16.4901112 -0.489430439,17.0573857 C0.453212878,24.8552098 1.35078621,32.2771752 2.80381908,44.2900584 C3.10566507,46.7872802 4.32693999,49.0220487 6.21839381,50.6451916 L6.21839381,50.6451916 Z" id="Shape"></path>
                    <path d="M15.8514728,20.1588179 C14.9532615,20.5812303 14.3672299,21.4828594 14.3672299,22.4904897 C14.3672299,23.915014 15.5282151,25.0682004 16.9583333,25.0682004 C18.3886898,25.0682004 19.5500104,23.915349 19.5500104,22.4904897 C19.5500104,21.7592225 19.2413454,21.0759346 18.7110321,20.5915657 L18.8808321,21.0712639 C18.9325379,20.728735 18.9800065,20.412751 19.0670481,19.8322774 C19.1218822,19.4665681 19.1218822,19.4665681 19.1740213,19.1191588 C21.1198855,6.10962258 22.1885635,3.61441582 26.9607843,3.61441582 C31.7328509,3.61441582 32.8008247,6.10800175 34.7475054,19.1183097 C34.8490477,19.7997311 34.9481267,20.4610164 35.0401522,21.0711931 L35.2096595,20.591843 C34.6795964,21.0767248 34.3715582,21.7592863 34.3715582,22.4904897 C34.3715582,23.9148408 35.5329421,25.0682004 36.9626617,25.0682004 C38.3925563,25.0682004 39.5537651,23.9152373 39.5537651,22.4904897 C39.5537651,21.4828594 38.9677335,20.5812303 38.0695222,20.1588179 L38.3733218,20.5658543 C38.2813766,19.9646507 38.2084957,19.4797981 38.0816416,18.6292482 C37.7836323,16.6375929 37.6573872,15.8062857 37.4976229,14.8024624 C35.7226723,3.65017807 33.6451678,0.255734505 26.9607843,0.255734505 C20.2760339,0.255734505 18.1983161,3.65083122 16.4231085,14.804796 C16.2633894,15.8083411 16.1370089,16.6405272 15.8393913,18.629564 C15.7507696,19.2237675 15.6577357,19.8412201 15.5475898,20.5664017 L15.8514728,20.1588179 Z" id="Shape"></path>
                </g>
            </g>
        </g>
    </g>
</svg>