<?xml version="1.0" encoding="UTF-8" standalone="no"?>
<svg width="15px" height="18px" viewBox="0 0 15 18" version="1.1" xmlns="http://www.w3.org/2000/svg" xmlns:xlink="http://www.w3.org/1999/xlink" xmlns:sketch="http://www.bohemiancoding.com/sketch/ns">
    <!-- Generator: Sketch 3.0.2 (7799) - http://www.bohemiancoding.com/sketch -->
    <title>currency</title>
    <description>Created with Sketch.</description>
    <defs></defs>
    <g id="Welcome" stroke="none" stroke-width="1" fill="none" fill-rule="evenodd" sketch:type="MSPage">
        <g id="Index-page" sketch:type="MSArtboardGroup" transform="translate(-28.000000, -645.000000)" fill="#4A4A4A">
            <g id="Catalog" sketch:type="MSLayerGroup" transform="translate(13.000000, 400.000000)">
                <g id="currency" transform="translate(15.000000, 245.000000)" sketch:type="MSShapeGroup">
                    <path d="M0,15 L11,15 L11,13.04 L0,13.04 L0,15 Z" id="–"></path>
                    <path d="M5.00653076,17.9967651 L5.00653076,10.9088135 C5.82206474,10.9845416 7.24660194,10.9845416 7.81747573,10.9845416 C12.3572816,10.9845416 14.0284424,8.68430342 14.0284424,5.68041992 C14.0284424,2.7775073 13.0097087,0 7.40970874,0 C6.0776699,0 3.06019417,0.0504854369 2,0.0504854369 L2,17.9967651 L5.00653076,17.9967651 Z M10.9807129,5.31286622 C10.9807129,7.28179825 9.37669891,8.0567627 7.39223289,8.0567627 C6.63106785,8.0567627 5.81553387,8.00627726 5.02718435,7.93054911 L5,2.95339806 C5.89708738,2.92815534 6.71262136,2.90291262 7.39223301,2.90291262 C9.67572816,2.90291262 10.9807129,3.47014777 10.9807129,5.31286622 Z" id="Р"></path>
                </g>
            </g>
        </g>
    </g>
</svg>