<?xml version="1.0" encoding="UTF-8" standalone="no"?>
<svg width="48px" height="47px" viewBox="0 0 48 47" version="1.1" xmlns="http://www.w3.org/2000/svg" xmlns:xlink="http://www.w3.org/1999/xlink" xmlns:sketch="http://www.bohemiancoding.com/sketch/ns">
    <!-- Generator: Sketch 3.0.3 (7891) - http://www.bohemiancoding.com/sketch -->
    <title>dom-i-interer</title>
    <desc>Created with Sketch.</desc>
    <defs></defs>
    <g id="Welcome" stroke="none" stroke-width="1" fill="none" fill-rule="evenodd" sketch:type="MSPage">
        <g id="Nav-2" sketch:type="MSArtboardGroup" transform="translate(-18.000000, -346.000000)" stroke-width="2">
            <g id="dom-i-interer" sketch:type="MSLayerGroup" transform="translate(19.000000, 347.000000)">
                <path d="M37,26 L38.9,13.8 C39.4,10.3 38.4,6.8 36.1,4.2 C33.8,1.5 30.5,-2.84217094e-14 27,-2.84217094e-14 L19,-2.84217094e-14 C15.5,-2.84217094e-14 12.2,1.5 9.9,4.2 C7.6,6.9 6.6,10.4 7.1,13.8 L9,26" id="Shape" stroke="#252324" sketch:type="MSShapeGroup"></path>
                <path d="M11,44 L11,46" id="Shape" stroke="#252324" sketch:type="MSShapeGroup"></path>
                <path d="M35,44 L35,46" id="Shape" stroke="#252324" sketch:type="MSShapeGroup"></path>
                <path d="M42,24 C38.1,24 35,27.1 35,31 L35,34 C35,34 32,32 23,32 C14,32 11,34 11,34 L11,31 C11,27.1 7.9,24 4,24 C1.8,24 0,25.8 0,28 C0,29.7 1,31.1 2.5,31.7 C3.4,32.1 4,33 4,34 L4,38 C4,41.3 6.7,44 10,44 L36,44 C39.3,44 42,41.3 42,38 L42,34 C42,33 42.6,32.1 43.5,31.7 C44.9,31.1 46,29.7 46,28 C46,25.8 44.2,24 42,24 L42,24 Z" id="Shape" stroke="#E29454" sketch:type="MSShapeGroup"></path>
                <path d="M29,19 L27,17 L29,15" id="Shape" stroke="#252324" sketch:type="MSShapeGroup"></path>
                <path d="M17,19 L19,17 L17,15" id="Shape" stroke="#252324" sketch:type="MSShapeGroup"></path>
                <path d="M26,17 C26,18.7 24.7,20 23,20 C21.3,20 20,18.7 20,17 C20,15.3 21.3,14 23,14 C24.7,14 26,15.3 26,17 L26,17 Z" id="Shape" stroke="#252324" sketch:type="MSShapeGroup"></path>
            </g>
        </g>
    </g>
</svg>