<?xml version="1.0" encoding="UTF-8" standalone="no"?>
<svg width="32px" height="32px" viewBox="0 0 32 32" version="1.1" xmlns="http://www.w3.org/2000/svg" xmlns:xlink="http://www.w3.org/1999/xlink" xmlns:sketch="http://www.bohemiancoding.com/sketch/ns">
    <!-- Generator: Sketch 3.0.3 (7891) - http://www.bohemiancoding.com/sketch -->
    <title>gp</title>
    <desc>Created with Sketch.</desc>
    <defs></defs>
    <g id="Page-2" stroke="none" stroke-width="1" fill="none" fill-rule="evenodd" sketch:type="MSPage">
        <g id="Desktop-HD" sketch:type="MSArtboardGroup" transform="translate(-1146.000000, -2886.000000)">
            <g id="Group" sketch:type="MSLayerGroup" transform="translate(0.000000, -87.000000)">
                <g id="Footer" transform="translate(174.000000, 2919.000000)" sketch:type="MSShapeGroup">
                    <g id="Group" transform="translate(924.000000, 54.000000)">
                        <g id="gp" transform="translate(48.000000, 0.000000)">
                            <path d="M16,0 C7.164,0 0,7.164 0,16 C0,24.838 7.164,32 16,32 C24.836,32 32,24.838 32,16 C32,7.164 24.836,0 16,0 L16,0 Z" fill="#636462"></path>
                            <path d="M23.75,15.25 L23.75,13 L22.25,13 L22.25,15.25 L20,15.25 L20,16.75 L22.25,16.75 L22.25,19 L23.75,19 L23.75,16.75 L26,16.741 L26,15.25 L23.75,15.25 L23.75,15.25 Z" id="Fill-1" fill="#FFFFFF"></path>
                            <path d="M17.752499,17.6594493 L16.9847617,17.0385797 C16.8738282,16.9296812 16.759474,16.8030435 16.6421876,16.6576812 C16.5038873,16.5049275 16.4344929,16.3127536 16.4344929,16.0801739 C16.4344929,15.8406957 16.5019326,15.6302899 16.6368119,15.4484638 C16.7516549,15.274029 16.8762717,15.1183188 17.0111511,14.9803478 C17.24719,14.7768406 17.4695455,14.5772754 17.6787063,14.3811594 C17.8678306,14.1850435 18.0466924,13.9711884 18.2152917,13.7386087 C18.5593318,13.2596522 18.7381936,12.6205507 18.7513883,11.8217971 C18.7513883,11.3862029 18.7015416,11.0048116 18.6023368,10.6781159 C18.4811409,10.3514203 18.3428406,10.0685797 18.1864587,9.8286087 C18.0227465,9.57484058 17.8556133,9.36049275 17.6850593,9.18605797 C17.5076636,9.01901449 17.3473722,8.89188406 17.2051624,8.80515942 L18.6013595,8.80515942 L20,8 L15.4717668,8 C14.8711626,8 14.2270647,8.06898551 13.5404505,8.20695652 C12.8465058,8.3666087 12.1779733,8.70808696 11.534364,9.2304058 C10.5970501,10.1237681 10.1283931,11.1181449 10.1283931,12.2145217 C10.1283931,13.1221739 10.4592385,13.9169855 11.1204407,14.5994493 C11.7523213,15.3326667 12.6710649,15.7061739 13.8761829,15.7209565 C14.103914,15.7209565 14.3463059,15.7061739 14.6038473,15.6771014 C14.561331,15.7938841 14.5149051,15.9215072 14.4655471,16.0604638 C14.40837,16.1915362 14.3805145,16.3561159 14.3805145,16.5532174 C14.3805145,16.8818841 14.4547959,17.1627536 14.6038473,17.3963188 C14.7313963,17.6372754 14.877027,17.863942 15.0402506,18.0753333 C14.511973,18.0901159 13.8483273,18.1551594 13.0488249,18.2709565 C12.2419921,18.4089275 11.4718113,18.6838841 10.7382825,19.0973043 C10.0853881,19.4811594 9.63432405,19.9271014 9.38509041,20.4341449 C9.12852637,20.9416812 9,21.401913 9,21.8148406 C9,22.6628696 9.39486428,23.3911594 10.1841041,23.9997101 C10.9660136,24.6521159 12.1501177,24.9852174 13.7359279,25 C15.6305922,24.9709275 17.0800569,24.5244928 18.0848105,23.6602029 C19.0534009,22.8254783 19.537696,21.8670725 19.537696,20.7849855 C19.5240126,20.0226957 19.3475943,19.4057681 19.0084411,18.9337101 C18.6487627,18.4690435 18.2299525,18.0442899 17.752499,17.6594493 L17.752499,17.6594493 Z" id="Fill-1" fill="#FFFFFF"></path>
                            <path d="M17.1962043,23.3527749 C16.6466412,23.7708411 15.8500137,23.9867353 14.8067996,24 C13.6436374,23.9867353 12.7270617,23.7438544 12.0575505,23.272272 C11.3521983,22.8002322 11,22.2001195 11,21.4723915 C11,21.1014377 11.0812398,20.7844575 11.2432414,20.5219082 C11.3842163,20.2721662 11.5567313,20.0631331 11.7612643,19.8948088 C11.9729656,19.7328882 12.1808438,19.6084746 12.3853768,19.5206533 C12.589432,19.4396929 12.7480885,19.3793158 12.8608684,19.3386069 C13.340183,19.203673 13.8089842,19.1062462 14.267272,19.0454116 C14.732728,19.0051602 15.0213681,18.9914381 15.1346259,19.0051602 C15.3248225,19.0051602 15.4906472,19.0115638 15.6316221,19.0252859 C16.4564446,19.5645639 17.0623976,20.0196798 17.449959,20.3901762 C17.8164937,20.7812557 18,21.2395734 18,21.7655868 C18,22.4123545 17.7319088,22.9415697 17.1962043,23.3527749 L17.1962043,23.3527749 Z" id="Fill-1" fill-opacity="0.868744339" fill="#4A4A4A"></path>
                            <path d="M15.0049724,15 C14.5122153,15 14.0740956,14.8668625 13.6906132,14.5991959 C13.3076414,14.3324571 12.9946258,14.0068038 12.752077,13.6236276 C12.25115,12.8016082 12.0009417,12.0102057 12.0009417,11.249884 C11.9856229,10.6746559 12.1571942,10.1541673 12.5156558,9.68841812 C12.9399885,9.24308025 13.4735959,9.01391681 14.1144353,9 C14.5990223,9.01391681 15.0279507,9.14055976 15.4007099,9.38039276 C15.7658096,9.63367868 16.0604426,9.96257925 16.2840981,10.3666306 C16.7610256,11.2090614 17,12.0445338 17,12.8735117 C17,13.0650997 16.9826386,13.3016855 16.9479158,13.5823411 C16.8907254,13.8629968 16.7620469,14.1371579 16.5618803,14.4038967 C16.1467389,14.7810422 15.6279398,14.9795887 15.0049724,15 L15.0049724,15 Z" id="Fill-1" fill-opacity="0.868744339" fill="#4A4A4A"></path>
                        </g>
                    </g>
                </g>
            </g>
        </g>
    </g>
</svg>