<?xml version="1.0" encoding="UTF-8" standalone="no"?>
<svg width="49px" height="46px" viewBox="0 0 49 46" version="1.1" xmlns="http://www.w3.org/2000/svg" xmlns:xlink="http://www.w3.org/1999/xlink" xmlns:sketch="http://www.bohemiancoding.com/sketch/ns">
    <!-- Generator: Sketch 3.0.3 (7891) - http://www.bohemiancoding.com/sketch -->
    <title>igry-i-khobbi</title>
    <desc>Created with Sketch.</desc>
    <defs></defs>
    <g id="Welcome" stroke="none" stroke-width="1" fill="none" fill-rule="evenodd" sketch:type="MSPage">
        <g id="Nav-2" sketch:type="MSArtboardGroup" transform="translate(-17.000000, -754.000000)">
            <g id="igry-i-khobbi" sketch:type="MSLayerGroup" transform="translate(18.000000, 755.000000)">
                <circle id="Oval" stroke="#252324" stroke-width="2" sketch:type="MSShapeGroup" cx="33" cy="10" r="10"></circle>
                <path d="M47,8.1 C46.4,8.1 46,8.5 46,9.1 C46,9.7 46.4,10.1 47,10.1 C47.6,10.1 48,9.7 48,9.1 C48,8.6 47.6,8.1 47,8.1 L47,8.1 L47,8.1 Z" id="Shape" fill="#252324" sketch:type="MSShapeGroup"></path>
                <path d="M47,44 L47,12" id="Shape" stroke="#252324" stroke-width="2" sketch:type="MSShapeGroup"></path>
                <path d="M32.9,40 C30.1,40 27.8,37.7 27.8,34.9 C27.8,29.6 21.6,28.5 18.8,31.4 C16.1,28.4 9.8,29.6 9.8,34.9 C9.8,37.7 7.5,40 4.7,40 C2.9,40 1.4,39.1 0.5,37.8 C4.3,46.4 15.1,44.8 18.8,39.1 C22.5,44.8 33.3,46.4 37.1,37.8 C36.2,39.1 34.6,40 32.9,40 L32.9,40 Z" id="Shape" stroke="#E29454" stroke-width="2" sketch:type="MSShapeGroup"></path>
                <path d="M38.5,10.1 C38.5,13.4 35.8,16.1 32.5,16.1" id="Shape" stroke="#252324" stroke-width="2" sketch:type="MSShapeGroup"></path>
            </g>
        </g>
    </g>
</svg>