<?xml version="1.0" encoding="UTF-8" standalone="no"?>
<svg width="32px" height="32px" viewBox="0 0 32 32" version="1.1" xmlns="http://www.w3.org/2000/svg" xmlns:xlink="http://www.w3.org/1999/xlink" xmlns:sketch="http://www.bohemiancoding.com/sketch/ns">
    <!-- Generator: Sketch 3.0.3 (7891) - http://www.bohemiancoding.com/sketch -->
    <title>is</title>
    <desc>Created with Sketch.</desc>
    <defs></defs>
    <g id="Page-2" stroke="none" stroke-width="1" fill="none" fill-rule="evenodd" sketch:type="MSPage">
        <g id="Desktop-HD" sketch:type="MSArtboardGroup" transform="translate(-1290.000000, -2886.000000)" fill="#636462">
            <g id="Group" sketch:type="MSLayerGroup" transform="translate(0.000000, -87.000000)">
                <g id="Footer" transform="translate(174.000000, 2919.000000)" sketch:type="MSShapeGroup">
                    <g id="Group" transform="translate(924.000000, 54.000000)">
                        <path d="M208,0 C199.164,0 192,7.164 192,16 C192,24.838 199.164,32 208,32 C216.837,32 224,24.838 224,16 C224,7.164 216.837,0 208,0 Z M214.154232,23.9998586 L201.845768,23.9998586 C200.826482,23.9998586 200,23.1730937 200,22.1531013 L200,9.84576785 C200,8.82634085 200.826482,8 201.845768,8 L214.154232,8 C215.173659,8 216,8.82634085 216,9.84576785 L216,22.1531013 C216,23.1730937 215.173659,23.9998586 214.154232,23.9998586 Z M207.999929,12.9228486 C206.30046,12.9228486 204.92299,14.3001776 204.92299,15.9996466 C204.92299,17.698833 206.30046,19.0768687 207.999929,19.0768687 C209.699398,19.0768687 211.077151,17.698833 211.077151,15.9996466 C211.077151,14.3001776 209.699398,12.9228486 207.999929,12.9228486 Z M214.154232,10.4610709 C214.154232,10.1214033 213.878597,9.84576785 213.538222,9.84576785 L211.692454,9.84576785 C211.352504,9.84576785 211.077151,10.1214033 211.077151,10.4610709 L211.077151,12.3075455 C211.077151,12.6472132 211.352504,12.9228486 211.692454,12.9228486 L213.538222,12.9228486 C213.878597,12.9228486 214.154232,12.6472132 214.154232,12.3075455 L214.154232,10.4610709 Z M214.154232,14.7684751 L212.761355,14.7684751 C212.862845,15.1624217 212.922778,15.5740373 212.922778,15.9996466 C212.922778,18.7189667 210.718825,20.9227779 207.999929,20.9227779 C205.281175,20.9227779 203.077081,18.7189667 203.077081,15.9996466 C203.077081,15.5740373 203.137296,15.1624217 203.238787,14.7684751 L201.845768,14.7684751 L201.845768,21.5382223 C201.845768,21.8776073 202.121403,22.1531013 202.461778,22.1531013 L213.538222,22.1531013 C213.878597,22.1531013 214.154232,21.8776073 214.154232,21.5382223 L214.154232,14.7684751 Z" id="is"></path>
                    </g>
                </g>
            </g>
        </g>
    </g>
</svg>