<?xml version="1.0" encoding="UTF-8" standalone="no"?>
<svg width="38px" height="48px" viewBox="0 0 38 48" version="1.1" xmlns="http://www.w3.org/2000/svg" xmlns:xlink="http://www.w3.org/1999/xlink" xmlns:sketch="http://www.bohemiancoding.com/sketch/ns">
    <!-- Generator: Sketch 3.0.2 (7799) - http://www.bohemiancoding.com/sketch -->
    <title>kukhnia</title>
    <description>Created with Sketch.</description>
    <defs></defs>
    <g id="Welcome" stroke="none" stroke-width="1" fill="none" fill-rule="evenodd" sketch:type="MSPage">
        <g id="Nav" sketch:type="MSArtboardGroup" transform="translate(-23.000000, -516.000000)" stroke="#252324">
            <g id="kukhnia" sketch:type="MSLayerGroup" transform="translate(24.000000, 517.000000)">
                <path d="M29,5.1 C27.8,5.1 26.7,5.4 25.7,5.9 C24.8,2.5 21.7,0.1 18,0.1 C14.3,0.1 11.3,2.6 10.3,5.9 C9.3,5.4 8.2,5.1 7,5.1 C3.1,5.1 0,8.2 0,12.1 C0,16 3,19.1 7,19.1 L7,46 L29,46 L29,19.1 C33,19.1 36,16 36,12.1 C36,8.2 32.9,5.1 29,5.1 L29,5.1 Z" id="Shape" sketch:type="MSShapeGroup"></path>
                <path d="M7,37 L29,37" id="Shape" sketch:type="MSShapeGroup"></path>
                <path d="M13,29.9 L13,37.9" id="Shape" sketch:type="MSShapeGroup"></path>
                <path d="M18,27.9 L18,37.9" id="Shape" sketch:type="MSShapeGroup"></path>
                <path d="M23,29.9 L23,37.9" id="Shape" sketch:type="MSShapeGroup"></path>
            </g>
        </g>
    </g>
</svg>