<?xml version="1.0" encoding="UTF-8" standalone="no"?>
<svg width="32px" height="32px" viewBox="0 0 32 32" version="1.1" xmlns="http://www.w3.org/2000/svg" xmlns:xlink="http://www.w3.org/1999/xlink" xmlns:sketch="http://www.bohemiancoding.com/sketch/ns">
    <!-- Generator: Sketch 3.0.3 (7891) - http://www.bohemiancoding.com/sketch -->
    <title>lj</title>
    <desc>Created with Sketch.</desc>
    <defs></defs>
    <g id="Page-2" stroke="none" stroke-width="1" fill="none" fill-rule="evenodd" sketch:type="MSPage">
        <g id="Desktop-HD" sketch:type="MSArtboardGroup" transform="translate(-1338.000000, -2886.000000)" fill="#636462">
            <g id="Group" sketch:type="MSLayerGroup" transform="translate(0.000000, -87.000000)">
                <g id="Footer" transform="translate(174.000000, 2919.000000)" sketch:type="MSShapeGroup">
                    <g id="Group" transform="translate(924.000000, 54.000000)">
                        <path d="M260.367422,20.3823495 L257.360933,19.7607667 C257.822767,18.6920333 258.6773,17.8312667 259.743767,17.3643333 L260.177692,19.463414 L259.832167,17.7899 C260.097041,19.0580671 260.358636,20.318584 260.367439,20.3812984 L260.367667,20.3824 C260.367644,20.3829331 260.367673,20.3833175 260.367667,20.3835333 L260.367422,20.3823495 Z M248.741311,12.8649453 L247,11.1253333 C247.7939,9.2831 249.265533,7.8041 251.101533,7 L251.1055,7 L252.8446,8.73683333 C253.8085,8.32033333 254.870433,8.08743333 255.9879,8.08743333 C260.3603,8.08743333 263.905367,11.6330667 263.905367,16.0054667 C263.905367,20.379 260.359733,23.9240667 255.9879,23.9240667 C251.614367,23.9240667 248.069867,20.3801333 248.069867,16.0054667 C248.069867,14.8846 248.320333,13.8328667 248.7408,12.8672667 L248.741254,12.8665862 L255.180967,19.2944 C255.9743,17.4521667 257.447067,15.9731667 259.2825,15.1685 L259.283633,15.1685 L252.845733,8.74023333 L252.8429,8.73966667 C251.006161,9.54416046 249.534766,11.0221315 248.741311,12.8649453 L248.741311,12.8649453 Z M256,0 C247.164,0 240,7.164 240,16 C240,24.838 247.164,32 256,32 C264.837,32 272,24.838 272,16 C272,7.164 264.837,0 256,0 Z" id="lj"></path>
                    </g>
                </g>
            </g>
        </g>
    </g>
</svg>