<?xml version="1.0" encoding="UTF-8" standalone="no"?>
<svg width="27px" height="27px" viewBox="0 0 27 27" version="1.1" xmlns="http://www.w3.org/2000/svg" xmlns:xlink="http://www.w3.org/1999/xlink" xmlns:sketch="http://www.bohemiancoding.com/sketch/ns">
    <!-- Generator: Sketch 3.0.2 (7799) - http://www.bohemiancoding.com/sketch -->
    <title>loading</title>
    <description>Created with Sketch.</description>
    <defs></defs>
    <g id="Welcome" stroke="none" stroke-width="1" fill="none" fill-rule="evenodd" sketch:type="MSPage">
        <g id="Index-page" sketch:type="MSArtboardGroup" transform="translate(-222.000000, -1331.000000)" fill="#000000">
            <g id="More" sketch:type="MSLayerGroup" transform="translate(0.000000, 1205.000000)">
                <g transform="translate(209.000000, 117.000000)" id="loading" sketch:type="MSShapeGroup">
                    <g transform="translate(13.000000, 9.000000)">
                        <path d="M26.5030851,16.8436915 L26.5025106,16.8436915 C26.4938936,16.7354043 26.4539681,16.628266 26.3818723,16.5363511 C26.1859787,16.2876064 25.8252128,16.2439468 25.5761809,16.4395532 L20.8511809,20.1600957 L20.8517553,20.1609574 C20.7793723,20.2175426 20.7199149,20.2922234 20.6805638,20.3824149 C20.5544681,20.6725213 20.6865957,21.0103085 20.9767021,21.1364043 L22.5651064,21.8280638 C20.2436809,24.3545745 16.9582979,25.8102766 13.5,25.8102766 C7.93857447,25.8102766 3.07828723,22.0842766 1.62143617,16.7397128 C1.42353191,16.0135851 0.319404255,16.3143191 0.517308511,17.0404468 C2.11174468,22.8885319 7.41379787,26.9592128 13.5,26.9592128 C17.4287872,26.9592128 21.1122766,25.2602234 23.6669362,22.3077447 L26.1609894,23.3937766 C26.253766,23.4420319 26.360617,23.4655851 26.4726383,23.4563936 C26.788883,23.4305426 27.0238404,23.1530745 26.9977021,22.837117 L26.5030851,16.8436915 L26.5030851,16.8436915 Z M22.3140638,20.4688723 L25.4463511,18.0023936 L25.7746596,21.9759894 L22.3140638,20.4688723 L22.3140638,20.4688723 Z" id="Shape"></path>
                        <path d="M26.4824043,9.95897872 C24.890266,4.12065957 19.5956809,0.040787234 13.5,0.040787234 C9.58241489,0.040787234 5.8842766,1.74408511 3.33220213,4.69225532 L0.839010638,3.60651064 C0.746234043,3.55825532 0.639382979,3.53470213 0.527361702,3.54389362 C0.211404255,3.56974468 -0.0235531915,3.84721277 0.00229787234,4.16317021 L0.496914894,10.1563085 L0.497489362,10.1563085 C0.506393617,10.2645957 0.545744681,10.371734 0.61812766,10.4636489 C0.814021277,10.7126809 1.17478723,10.7560532 1.42381915,10.5601596 L6.14881915,6.83990426 L6.14824468,6.83932979 C6.22034043,6.78274468 6.28008511,6.7077766 6.31943617,6.61787234 C6.44581915,6.32805319 6.31311702,5.99026596 6.02329787,5.86388298 L4.43403191,5.17164894 C6.75775532,2.64082979 10.0316489,1.1897234 13.5,1.1897234 C19.0691809,1.1897234 23.9234362,4.92347872 25.3785638,10.2597128 C25.5764681,10.9858404 26.6805957,10.6851064 26.4824043,9.95897872 L26.4824043,9.95897872 Z M1.55364894,8.99789362 L1.22562766,5.02429787 L4.6862234,6.53141489 L1.55364894,8.99789362 L1.55364894,8.99789362 Z" id="Shape"></path>
                    </g>
                </g>
            </g>
        </g>
    </g>
</svg>