<?xml version="1.0" encoding="UTF-8" standalone="no"?>
<svg width="299px" height="52px" viewBox="0 0 299 52" version="1.1" xmlns="http://www.w3.org/2000/svg" xmlns:xlink="http://www.w3.org/1999/xlink" xmlns:sketch="http://www.bohemiancoding.com/sketch/ns">
    <!-- Generator: Sketch 3.0.2 (7799) - http://www.bohemiancoding.com/sketch -->
    <title>logo</title>
    <description>Created with Sketch.</description>
    <defs></defs>
    <g id="Welcome" stroke="none" stroke-width="1" fill="none" fill-rule="evenodd" sketch:type="MSPage">
        <g id="Index-page" sketch:type="MSArtboardGroup" transform="translate(-175.000000, -23.000000)">
            <g id="Header" sketch:type="MSLayerGroup">
                <g id="logo" transform="translate(175.000000, 23.000000)" sketch:type="MSShapeGroup">
                    <g id="Logo">
                        <path d="M20.7688349,30.6716054 C13.3909716,27.6658092 8.06251473,22.6106066 8.06251473,14.822862 C8.06251473,12.2269471 10.2940907,7.35391395 11.3871075,5.16788037 C5.69431169,9.13006622 0.3203125,18.2840818 0.3203125,25.9807417 C0.3203125,38.1860958 10.0663788,46.0649251 16.7611066,47.0668571 C22.8637837,47.9777045 28.1011558,44.1066034 28.1011558,39.5068244 C28.1011558,35.0436725 23.5013768,31.8101645 20.7688349,30.6716054 L20.7688349,30.6716054 Z" id="Shape" fill="#F6A623"></path>
                        <path d="M52.4663216,26.5727924 C52.4663216,13.0922521 42.3559164,1.97991475 29.2852573,0.340389573 C28.2377829,0.203762475 27.1447661,0.158220109 26.0517493,0.158220109 L25.2775291,0.158220109 C18.17292,0.613643769 12.6167513,5.07679564 12.6167513,10.5418796 C12.6167513,16.2802177 16.7611066,19.6048104 28.7842913,21.1987932 C39.4867473,22.5650642 47.2744919,27.9390634 47.2744919,36.1366893 C47.2744919,39.461282 46.6824411,42.5126205 44.9518312,45.0174507 C49.5971526,40.2810446 52.4663216,33.7684863 52.4663216,26.5727924 L52.4663216,26.5727924 Z" id="Shape" fill="#D65049"></path>
                        <path d="M24.3211394,25.1111418 C21.8163093,24.88343 19.539191,24.6557181 17.1709879,24.7923452 C26.5982577,27.7070567 33.7484092,33.4453948 33.1108161,39.9124108 C32.5643077,45.6962913 26.507173,50.5693244 17.7174963,50.7514939 C19.0382249,51.0247481 20.3589536,51.2524599 21.7707669,51.389087 C33.2929855,52.4821038 43.5400179,47.8367825 44.3597805,40.4589192 C45.2706278,31.9424967 35.843358,26.2041586 24.3211394,25.1111418 L24.3211394,25.1111418 Z" id="Shape" fill="#90B04B"></path>
                    </g>
                    <path d="M106.864,20.8 L102.724,20.8 L102.724,31.564 C101.788,32.788 100.456,33.544 99.088,33.544 C96.82,33.544 95.992,31.996 95.992,29.836 L95.992,20.8 L91.852,20.8 L91.852,30.7 C91.852,35.344 94.372,37.396 97.54,37.396 C100.06,37.396 101.752,36.208 102.724,35.02 L102.724,37 L106.864,37 L106.864,20.8 Z M111.472,44.2 L115.612,44.2 L115.612,36.604 C116.548,37.144 117.952,37.396 119.392,37.396 C124.576,37.396 127.96,33.58 127.96,28.648 C127.96,23.86 125.08,20.404 120.616,20.404 C118.528,20.404 116.62,21.268 115.612,22.348 L115.612,20.8 L111.472,20.8 L111.472,44.2 Z M119.32,24.292 C122.056,24.292 123.568,26.164 123.568,28.756 C123.568,31.456 121.912,33.544 119.032,33.544 C117.664,33.544 116.728,33.328 115.612,32.608 L115.612,26.056 C116.62,24.94 117.916,24.292 119.32,24.292 Z M144.268,32.464 C143.332,33.22 141.676,33.94 139.696,33.94 C137.14,33.94 135.196,32.608 134.836,30.16 L146.536,30.16 C146.716,29.548 146.788,28.936 146.788,27.928 C146.788,23.392 143.296,20.404 139.12,20.404 C133.792,20.404 130.552,24.184 130.552,28.9 C130.552,34.012 134.044,37.396 139.264,37.396 C141.532,37.396 143.836,36.748 145.456,35.38 L144.268,32.464 Z M138.94,23.86 C141.316,23.86 142.684,25.408 142.648,27.388 L134.692,27.388 C135.124,25.264 136.456,23.86 138.94,23.86 Z M150.136,37 L154.276,37 L154.276,26.128 C154.744,25.192 155.5,24.4 156.94,24.4 C157.804,24.4 158.236,24.544 159.028,25.012 L160.504,21.124 C159.964,20.728 159.316,20.512 157.984,20.512 C156.04,20.512 155.032,21.34 154.276,22.384 L154.276,20.8 L150.136,20.8 L150.136,37 Z M208.024,32.464 C207.088,33.22 205.432,33.94 203.452,33.94 C200.896,33.94 198.952,32.608 198.592,30.16 L210.292,30.16 C210.472,29.548 210.544,28.936 210.544,27.928 C210.544,23.392 207.052,20.404 202.876,20.404 C197.548,20.404 194.308,24.184 194.308,28.9 C194.308,34.012 197.8,37.396 203.02,37.396 C205.288,37.396 207.592,36.748 209.212,35.38 L208.024,32.464 Z M202.696,23.86 C205.072,23.86 206.44,25.408 206.404,27.388 L198.448,27.388 C198.88,25.264 200.212,23.86 202.696,23.86 Z M213.892,37 L218.032,37 L218.032,26.128 C218.5,25.192 219.256,24.4 220.696,24.4 C221.56,24.4 221.992,24.544 222.784,25.012 L224.26,21.124 C223.72,20.728 223.072,20.512 221.74,20.512 C219.796,20.512 218.788,21.34 218.032,22.384 L218.032,20.8 L213.892,20.8 L213.892,37 Z M241.864,20.8 L236.644,20.8 L230.848,28.54 L237.256,37 L242.584,37 L235.78,28.216 L241.864,20.8 Z M226.636,37 L230.776,37 L230.776,11.8 L226.636,11.8 L226.636,37 Z M246.4,24.976 C247.588,24.436 248.776,23.86 250.648,23.86 C253.06,23.86 253.78,25.336 253.672,28.036 C252.88,27.46 251.44,26.992 250,26.992 C246.724,26.992 244.096,28.684 244.096,32.248 C244.096,35.38 246.22,37.216 249.172,37.216 C251.368,37.216 253.096,36.352 253.96,35.128 L253.96,37 L257.56,37 L257.56,27.136 C257.56,22.852 255.868,20.404 251.08,20.404 C248.956,20.404 246.76,21.124 245.356,21.952 L246.4,24.976 Z M250.54,33.724 C249.244,33.724 248.236,33.04 248.236,31.816 C248.236,30.448 249.46,29.8 250.828,29.8 C252.016,29.8 252.952,30.052 253.672,30.592 L253.672,32.248 C253.168,32.968 252.268,33.724 250.54,33.724 Z M273.076,37 L277.216,37 L277.216,11.8 L273.076,11.8 L273.076,21.196 C272.176,20.656 271.132,20.404 269.692,20.404 C264.472,20.404 260.8,23.968 260.8,29.08 C260.8,34.012 263.788,37.288 268.432,37.288 C270.52,37.288 271.996,36.46 273.076,35.308 L273.076,37 Z M269.296,33.436 C267.1,33.436 265.228,31.816 265.228,28.936 C265.228,25.948 267.424,24.292 269.872,24.292 C270.988,24.292 272.032,24.616 273.076,25.264 L273.076,31.78 C272.14,32.716 270.808,33.436 269.296,33.436 Z M280.816,28.9 C280.816,33.76 284.272,37.396 289.636,37.396 C295,37.396 298.456,33.76 298.456,28.9 C298.456,24.04 295,20.404 289.636,20.404 C284.272,20.404 280.816,24.04 280.816,28.9 Z M285.244,28.9 C285.244,26.092 287.188,24.292 289.636,24.292 C292.156,24.292 294.064,26.164 294.064,28.9 C294.064,31.708 292.192,33.544 289.636,33.544 C287.116,33.544 285.244,31.6 285.244,28.9 Z" id="SuperMerkado" fill="#4A4A4A"></path>
                    <path d="M163.62,37.404 L168.143338,37.404 L168.143338,18.7211429 L176.344187,30.1611429 L177.006139,30.1611429 L185.133437,18.6097143 L185.133437,37.404 L189.62,37.404 L189.62,11.404 L185.354088,11.404 L176.969364,23.5497143 L168.180113,11.404 L163.62,11.404 L163.62,37.404 Z" id="Path" fill="#D0011B"></path>
                    <path d="M83.8467819,30.3098172 C83.8467819,32.2184044 82.2312311,33.2627258 80.1016415,33.2627258 C78.1189201,33.2627258 75.695594,32.3264377 74.1901944,30.4178504 L71.62,33.4427812 C72.8683801,35.9995679 76.7236717,37.404 80.0282073,37.404 C84.8381425,37.404 88.62,34.5231136 88.62,30.2738061 C88.62,21.8832244 76.9806911,23.5397341 76.9806911,18.3181274 C76.9806911,16.6616177 78.3392225,15.5452742 80.5789633,15.5452742 C82.6351188,15.5452742 83.8834989,16.2294848 85.131879,17.4178504 L87.5552052,14.104831 C86.0130886,12.4483213 83.36946,11.404 80.2117927,11.404 C75.2182721,11.404 72.207473,14.5729751 72.207473,18.3541385 C72.207473,26.5646648 83.8467819,25.3402881 83.8467819,30.3098172 L83.8467819,30.3098172 Z" id="Path" fill="#E29454"></path>
                </g>
            </g>
        </g>
    </g>
</svg>