<?xml version="1.0" encoding="UTF-8" standalone="no"?>
<svg width="37px" height="40px" viewBox="0 0 37 40" version="1.1" xmlns="http://www.w3.org/2000/svg" xmlns:xlink="http://www.w3.org/1999/xlink" xmlns:sketch="http://www.bohemiancoding.com/sketch/ns">
    <!-- Generator: Sketch 3.0.3 (7891) - http://www.bohemiancoding.com/sketch -->
    <title>menu-profile</title>
    <desc>Created with Sketch.</desc>
    <defs></defs>
    <g id="Welcome" stroke="none" stroke-width="1" fill="none" fill-rule="evenodd" sketch:type="MSPage">
        <g id="Catalog-3" sketch:type="MSArtboardGroup" transform="translate(-393.000000, -1060.000000)" stroke-linecap="round" stroke="#1B1A19" stroke-linejoin="round">
            <g id="Каталог-товаров-+-Imported-Layers-2-+-Imported-Layers" sketch:type="MSLayerGroup" transform="translate(353.000000, 1061.000000)">
                <path d="M53.8947368,20.9120488 L53.8947368,25.9512195 L44.6667105,29.2674146 C42.4681579,30.058 41,32.153561 41,34.504 L41,37.5056144 L76,37.5056144 L76,34.504 C76,32.153561 74.5309211,30.058 72.3323684,29.2674146 L63.1052632,25.9512195 L63.1052632,20.5348293 M67.4802632,11.1219512 C67.4802632,17.2640488 63.3557895,22.2439024 58.2697368,22.2439024 C53.1827632,22.2439024 49.0592105,17.2640488 49.0592105,11.1219512 C49.0592105,4.97985366 53.1827632,0 58.2697368,0 C63.3557895,0 67.4802632,4.97985366 67.4802632,11.1219512 L67.4802632,11.1219512 Z M67.4231579,10.108 C67.1127632,10.146 66.8705263,10.134878 66.5592105,10.195122 C63.4221053,10.803122 61.4068421,9.65941463 59.6798684,6.6184878 C58.6436842,8.61673171 55.4043421,10.195122 52.7434211,10.195122 C51.4336842,10.195122 50.3063158,9.92541463 49.1780263,9.33131707" id="menu-profile" sketch:type="MSShapeGroup"></path>
            </g>
        </g>
    </g>
</svg>