<?xml version="1.0" encoding="UTF-8" standalone="no"?>
<svg width="40px" height="41px" viewBox="0 0 40 41" version="1.1" xmlns="http://www.w3.org/2000/svg" xmlns:xlink="http://www.w3.org/1999/xlink" xmlns:sketch="http://www.bohemiancoding.com/sketch/ns">
    <!-- Generator: Sketch 3.0.3 (7891) - http://www.bohemiancoding.com/sketch -->
    <title>menu-catalog</title>
    <desc>Created with Sketch.</desc>
    <defs></defs>
    <g id="Welcome" stroke="none" stroke-width="1" fill="none" fill-rule="evenodd" sketch:type="MSPage">
        <g id="Catalog-3" sketch:type="MSArtboardGroup" transform="translate(-70.000000, -1060.000000)">
            <g id="Каталог-товаров-+-Imported-Layers" sketch:type="MSLayerGroup" transform="translate(30.000000, 1061.000000)">
                <g id="menu-catalog" transform="translate(40.500000, 0.500000)" sketch:type="MSShapeGroup">
                    <path d="M38,37.9584375 L32.0137396,29.7025154 L32.0137396,18.8760779 C32.0137396,14.8516404 28.307625,12.789375 23.75,8.9015 M27.3125,23.7084375 L20.78125,17.1771875 C19.798,16.19275 18.202,16.19275 17.21875,17.1771875 C16.2355,18.15925 16.2355,19.75525 17.21875,20.7396875 L22.9273975,28.4913792 L22.9273975,32.1453167 C22.9273975,33.6296917 23.0268125,35.0455 23.8865625,36.2531875 L25.137,38 M16.4269943,33.0181833 L3.36449432,33.0181833 C1.40511932,33.0181833 0,31.6053125 0,29.6459375 L0,3.5209375 C0,1.5615625 1.603125,-0.0415625 3.5625,-0.0415625 L20.1875,-0.0415625 C22.146875,-0.0415625 23.0171986,1.62845505 23.0171986,3.58783005 L23.0171986,15.4568925" id="Stroke-1" stroke="#252324" stroke-linecap="round" stroke-linejoin="round"></path>
                    <g id="Group" transform="translate(5.500000, 5.500000)" fill="#252324">
                        <path d="M1.03125,0 C0.46096875,0 0,0.462 0,1.03125 C0,1.59946875 0.46096875,2.0625 1.03125,2.0625 C1.60153125,2.0625 2.0625,1.59946875 2.0625,1.03125 C2.0625,0.462 1.60153125,0 1.03125,0" id="Fill-2"></path>
                        <path d="M5.6875,-0.1040625 C5.1345,-0.1040625 4.6875,0.3439375 4.6875,0.8959375 C4.6875,1.4469375 5.1345,1.8959375 5.6875,1.8959375 C6.2405,1.8959375 6.6875,1.4469375 6.6875,0.8959375 C6.6875,0.3439375 6.2405,-0.1040625 5.6875,-0.1040625" id="Fill-3"></path>
                        <path d="M10.4375,-0.1040625 C9.8845,-0.1040625 9.4375,0.3439375 9.4375,0.8959375 C9.4375,1.4469375 9.8845,1.8959375 10.4375,1.8959375 C10.9905,1.8959375 11.4375,1.4469375 11.4375,0.8959375 C11.4375,0.3439375 10.9905,-0.1040625 10.4375,-0.1040625" id="Fill-4"></path>
                        <path d="M0.9375,4.6459375 C0.3845,4.6459375 -0.0625,5.0939375 -0.0625,5.6459375 C-0.0625,6.1969375 0.3845,6.6459375 0.9375,6.6459375 C1.4905,6.6459375 1.9375,6.1969375 1.9375,5.6459375 C1.9375,5.0939375 1.4905,4.6459375 0.9375,4.6459375" id="Fill-5"></path>
                        <path d="M0.9375,9.3959375 C0.3845,9.3959375 -0.0625,9.8439375 -0.0625,10.3959375 C-0.0625,10.9469375 0.3845,11.3959375 0.9375,11.3959375 C1.4905,11.3959375 1.9375,10.9469375 1.9375,10.3959375 C1.9375,9.8439375 1.4905,9.3959375 0.9375,9.3959375" id="Fill-6"></path>
                        <path d="M0.9375,14.1459375 C0.3845,14.1459375 -0.0625,14.5939375 -0.0625,15.1459375 C-0.0625,15.6969375 0.3845,16.1459375 0.9375,16.1459375 C1.4905,16.1459375 1.9375,15.6969375 1.9375,15.1459375 C1.9375,14.5939375 1.4905,14.1459375 0.9375,14.1459375" id="Fill-7"></path>
                        <path d="M0.9375,18.8959375 C0.3845,18.8959375 -0.0625,19.3439375 -0.0625,19.8959375 C-0.0625,20.4469375 0.3845,20.8959375 0.9375,20.8959375 C1.4905,20.8959375 1.9375,20.4469375 1.9375,19.8959375 C1.9375,19.3439375 1.4905,18.8959375 0.9375,18.8959375" id="Fill-8"></path>
                        <path d="M5.6875,4.6459375 C5.1345,4.6459375 4.6875,5.0939375 4.6875,5.6459375 C4.6875,6.1969375 5.1345,6.6459375 5.6875,6.6459375 C6.2405,6.6459375 6.6875,6.1969375 6.6875,5.6459375 C6.6875,5.0939375 6.2405,4.6459375 5.6875,4.6459375" id="Fill-9"></path>
                        <path d="M5.6875,9.3959375 C5.1345,9.3959375 4.6875,9.8439375 4.6875,10.3959375 C4.6875,10.9469375 5.1345,11.3959375 5.6875,11.3959375 C6.2405,11.3959375 6.6875,10.9469375 6.6875,10.3959375 C6.6875,9.8439375 6.2405,9.3959375 5.6875,9.3959375" id="Fill-10"></path>
                        <path d="M5.6875,14.1459375 C5.1345,14.1459375 4.6875,14.5939375 4.6875,15.1459375 C4.6875,15.6969375 5.1345,16.1459375 5.6875,16.1459375 C6.2405,16.1459375 6.6875,15.6969375 6.6875,15.1459375 C6.6875,14.5939375 6.2405,14.1459375 5.6875,14.1459375" id="Fill-11"></path>
                        <path d="M5.6875,18.8959375 C5.1345,18.8959375 4.6875,19.3439375 4.6875,19.8959375 C4.6875,20.4469375 5.1345,20.8959375 5.6875,20.8959375 C6.2405,20.8959375 6.6875,20.4469375 6.6875,19.8959375 C6.6875,19.3439375 6.2405,18.8959375 5.6875,18.8959375" id="Fill-12"></path>
                        <path d="M10.4375,4.6459375 C9.8845,4.6459375 9.4375,5.0939375 9.4375,5.6459375 C9.4375,6.1969375 9.8845,6.6459375 10.4375,6.6459375 C10.9905,6.6459375 11.4375,6.1969375 11.4375,5.6459375 C11.4375,5.0939375 10.9905,4.6459375 10.4375,4.6459375" id="Fill-13"></path>
                    </g>
                </g>
            </g>
        </g>
    </g>
</svg>