<?xml version="1.0" encoding="UTF-8" standalone="no"?>
<svg width="38px" height="38px" viewBox="0 0 38 38" version="1.1" xmlns="http://www.w3.org/2000/svg" xmlns:xlink="http://www.w3.org/1999/xlink" xmlns:sketch="http://www.bohemiancoding.com/sketch/ns">
    <!-- Generator: Sketch 3.0.3 (7891) - http://www.bohemiancoding.com/sketch -->
    <title>menu-contacts</title>
    <desc>Created with Sketch.</desc>
    <defs></defs>
    <g id="Welcome" stroke="none" stroke-width="1" fill="none" fill-rule="evenodd" sketch:type="MSPage">
        <g id="Catalog-3" sketch:type="MSArtboardGroup" transform="translate(-558.000000, -1061.000000)" stroke="#21242C">
            <g id="Shape-2-+-Контакты" sketch:type="MSLayerGroup" transform="translate(543.000000, 1062.000000)">
                <path d="M26.3113521,21.9131262 C26.3113521,21.9131262 28.0498521,24.9498762 28.4676021,25.7448762 C28.8868521,26.5376262 28.9926021,27.3588762 28.6881021,27.8576262 C28.2261021,28.6128762 24.0073521,34.9548762 23.6338521,35.4888762 C23.2596021,36.0228762 22.1908521,36.2801262 21.1438521,35.5458762 C20.0961021,34.8153762 15.9561021,31.4418762 16.0003521,30.0123762 C16.0468521,28.5806262 16.1773521,22.6278762 27.4056021,11.4026262 C38.6308521,0.17887623 44.5851021,0.0461262302 46.0161021,0.000376230155 C47.4471021,-0.0453737698 50.8221021,4.09462623 51.5541021,5.14162623 C52.2853521,6.19012623 52.0101021,7.26037623 51.4956021,7.63237623 C50.9098521,8.05537623 44.5881021,12.2253762 43.8628521,12.6843762 C43.3686021,12.9986262 42.5428521,12.8831262 41.7493521,12.4638762 C40.9536021,12.0468762 37.9176021,10.3083762 37.9176021,10.3083762 C37.9176021,10.3083762 35.8273521,11.5338762 31.6836021,15.6783762 C27.5391021,19.8236262 26.3113521,21.9131262 26.3113521,21.9131262 L26.3113521,21.9131262 Z" id="menu-contacts" sketch:type="MSShapeGroup" transform="translate(34.000000, 18.000000) rotate(-90.000000) translate(-34.000000, -18.000000) "></path>
            </g>
        </g>
    </g>
</svg>