<?xml version="1.0" encoding="UTF-8" standalone="no"?>
<svg width="47px" height="47px" viewBox="0 0 47 47" version="1.1" xmlns="http://www.w3.org/2000/svg" xmlns:xlink="http://www.w3.org/1999/xlink" xmlns:sketch="http://www.bohemiancoding.com/sketch/ns">
    <!-- Generator: Sketch 3.0.2 (7799) - http://www.bohemiancoding.com/sketch -->
    <title>minus</title>
    <description>Created with Sketch.</description>
    <defs></defs>
    <g id="Welcome" stroke="none" stroke-width="1" fill="none" fill-rule="evenodd" sketch:type="MSPage">
        <g id="Cart" sketch:type="MSArtboardGroup" transform="translate(-37.000000, -329.000000)" fill="#D65049">
            <g id="Product-7" sketch:type="MSLayerGroup" transform="translate(20.000000, 121.000000)">
                <g id="Tools" transform="translate(17.000000, 59.000000)" sketch:type="MSShapeGroup">
                    <g id="minus" transform="translate(0.000000, 149.000000)">
                        <path d="M15.0158418,24.0180024 L23.023206,24.0180024 L24.0338442,24.0180024 L32.1189498,24.0180024 L32.1189498,23.0073642 L24.0338442,23.0073642 L23.023206,23.0073642 L15.0158418,23.0073642 L15.0158418,24.0180024 Z" id="+-2"></path>
                        <path d="M0,23.4805201 C0,36.4549254 10.5149809,46.972759 23.4922389,46.972759 C36.4666442,46.972759 46.9844778,36.4577781 46.9844778,23.4805201 C46.9844778,10.5061149 36.4694969,-0.01171875 23.4922389,-0.01171875 C10.5178336,-0.01171875 0,10.5032622 0,23.4805201 Z M45.9844778,23.4805201 C45.9844778,35.9044894 35.9153635,45.972759 23.4922389,45.972759 C11.0682697,45.972759 1,35.9036448 1,23.4805201 C1,11.0565509 11.0691143,0.98828125 23.4922389,0.98828125 C35.9162081,0.98828125 45.9844778,11.0573955 45.9844778,23.4805201 Z" id="Rectangle-8"></path>
                    </g>
                </g>
            </g>
        </g>
    </g>
</svg>