<?xml version="1.0" encoding="UTF-8" standalone="no"?>
<svg width="55px" height="36px" viewBox="0 0 55 36" version="1.1" xmlns="http://www.w3.org/2000/svg" xmlns:xlink="http://www.w3.org/1999/xlink" xmlns:sketch="http://www.bohemiancoding.com/sketch/ns">
    <!-- Generator: Sketch 3.0.2 (7799) - http://www.bohemiancoding.com/sketch -->
    <title>nav</title>
    <description>Created with Sketch.</description>
    <defs></defs>
    <g id="Welcome" stroke="none" stroke-width="1" fill="none" fill-rule="evenodd" sketch:type="MSPage">
        <g id="Index-page" sketch:type="MSArtboardGroup" transform="translate(-27.000000, -31.000000)" fill="#D8D8D8">
            <g id="Header" sketch:type="MSLayerGroup">
                <path d="M29.0063093,31 C27.8982553,31 27,31.8877296 27,33 L27,33 C27,34.1045695 27.8861955,35 29.0063093,35 L79.9936907,35 C81.1017447,35 82,34.1122704 82,33 L82,33 C82,31.8954305 81.1138045,31 79.9936907,31 L29.0063093,31 L29.0063093,31 Z M29.0063093,47 C27.8982553,47 27,47.8877296 27,49 L27,49 C27,50.1045695 27.8861955,51 29.0063093,51 L79.9936907,51 C81.1017447,51 82,50.1122704 82,49 L82,49 C82,47.8954305 81.1138045,47 79.9936907,47 L29.0063093,47 L29.0063093,47 Z M29.0063093,63 C27.8982553,63 27,63.8877296 27,65 L27,65 C27,66.1045695 27.8861955,67 29.0063093,67 L79.9936907,67 C81.1017447,67 82,66.1122704 82,65 L82,65 C82,63.8954305 81.1138045,63 79.9936907,63 L29.0063093,63 L29.0063093,63 Z" id="nav" sketch:type="MSShapeGroup"></path>
            </g>
        </g>
    </g>
</svg>