<?xml version="1.0" encoding="UTF-8" standalone="no"?>
<svg width="47px" height="47px" viewBox="0 0 47 47" version="1.1" xmlns="http://www.w3.org/2000/svg" xmlns:xlink="http://www.w3.org/1999/xlink" xmlns:sketch="http://www.bohemiancoding.com/sketch/ns">
    <!-- Generator: Sketch 3.0.2 (7799) - http://www.bohemiancoding.com/sketch -->
    <title>novinki</title>
    <description>Created with Sketch.</description>
    <defs></defs>
    <g id="Welcome" stroke="none" stroke-width="1" fill="none" fill-rule="evenodd" sketch:type="MSPage">
        <g id="Nav" sketch:type="MSArtboardGroup" transform="translate(-21.000000, -108.000000)">
            <g id="novinki" sketch:type="MSLayerGroup" transform="translate(22.000000, 109.000000)">
                <path d="M22.6461538,0 L27.4230769,4.77692308 L33.9692308,3.18461538 L35.7384615,9.55384615 L42.1076923,11.3230769 L40.5153846,17.8692308 L45.2923077,22.6461538 L40.5153846,27.4230769 L42.1076923,33.9692308 L35.7384615,35.7384615 L33.9692308,42.1076923 L27.4230769,40.5153846 L22.6461538,45.2923077 L17.8692308,40.5153846 L11.3230769,42.1076923 L9.55384615,35.7384615 L3.18461538,33.9692308 L4.77692308,27.4230769 L0,22.6461538 L4.77692308,17.8692308 L3.18461538,11.3230769 L9.55384615,9.55384615 L11.3230769,3.18461538 L17.8692308,4.77692308 L22.6461538,0 Z" id="Shape" stroke="#000000" sketch:type="MSShapeGroup"></path>
                <path d="M17.325,26.7 L17.325,19 L16.753,19 L16.753,25.644 L11.484,19 L11,19 L11,26.7 L11.572,26.7 L11.572,20.078 L16.841,26.7 L17.325,26.7 Z M19.767,26.7 L24.134,26.7 L24.134,26.128 L20.372,26.128 L20.372,23.081 L23.694,23.081 L23.694,22.509 L20.372,22.509 L20.372,19.572 L24.024,19.572 L24.024,19 L19.767,19 L19.767,26.7 Z M35.255,19 L34.661,19 L32.736,25.633 L30.47,19 L29.909,19 L27.698,25.622 L25.707,19 L25.025,19 L27.379,26.7 L27.907,26.7 L30.173,20.012 L32.483,26.7 L33.011,26.7 L35.255,19 Z" id="NEW" fill="#252324" sketch:type="MSShapeGroup"></path>
            </g>
        </g>
    </g>
</svg>