<?xml version="1.0" encoding="UTF-8" standalone="no"?>
<svg width="47px" height="41px" viewBox="0 0 47 41" version="1.1" xmlns="http://www.w3.org/2000/svg" xmlns:xlink="http://www.w3.org/1999/xlink" xmlns:sketch="http://www.bohemiancoding.com/sketch/ns">
    <!-- Generator: Sketch 3.0.2 (7799) - http://www.bohemiancoding.com/sketch -->
    <title>odezhda-i-aksessuary</title>
    <description>Created with Sketch.</description>
    <defs></defs>
    <g id="Welcome" stroke="none" stroke-width="1" fill="none" fill-rule="evenodd" sketch:type="MSPage">
        <g id="Nav" sketch:type="MSArtboardGroup" transform="translate(-19.000000, -769.000000)">
            <g id="odezhda-i-aksessuary" sketch:type="MSLayerGroup" transform="translate(19.000000, 768.000000)">
                <path d="M35.5,16.5 L35.5,41.5" id="Line" stroke="#252324" stroke-linecap="square" sketch:type="MSShapeGroup"></path>
                <path d="M35.5,16.5 L40.5,21.5" id="Line" stroke="#252324" stroke-linecap="square" sketch:type="MSShapeGroup"></path>
                <path d="M40.5,21.5 L46.5,15.5" id="Line" stroke="#252324" stroke-linecap="square" sketch:type="MSShapeGroup"></path>
                <path d="M46.5,15.5 L35.5,4.5" id="Line" stroke="#252324" stroke-linecap="square" sketch:type="MSShapeGroup"></path>
                <path d="M32.5,4.5 L35.5,4.5" id="Line" stroke="#252324" stroke-linecap="square" sketch:type="MSShapeGroup"></path>
                <path d="M23.5,7.5 L27.5,11.5" id="Line" stroke="#252324" stroke-linecap="square" sketch:type="MSShapeGroup"></path>
                <path d="M27.5,11.5 L32.5,4.5" id="Line" stroke="#252324" stroke-linecap="square" sketch:type="MSShapeGroup"></path>
                <path d="M23.5,7.5 L23.5,41.5" id="Line" stroke="#252324" stroke-linecap="square" sketch:type="MSShapeGroup"></path>
                <path d="M23.5,41.5 L35.5,41.5" id="Line" stroke="#252324" stroke-linecap="square" sketch:type="MSShapeGroup"></path>
                <path d="M23.5,7.5 L29.5,1.5" id="Line" stroke="#252324" stroke-linecap="square" sketch:type="MSShapeGroup"></path>
                <path d="M29.5,1.5 L32.5,4.5" id="Line" stroke="#252324" stroke-linecap="square" sketch:type="MSShapeGroup"></path>
                <path d="M23.5,1.5 L29.5,1.5" id="Line" stroke="#252324" stroke-linecap="square" sketch:type="MSShapeGroup"></path>
                <g id="Group" transform="translate(12.000000, 21.500000) scale(-1, 1) translate(-12.000000, -21.500000) " stroke="#4A4A4A" stroke-linecap="square" sketch:type="MSShapeGroup">
                    <path d="M12.5,16.5 L12.5,41.5" id="Line-30"></path>
                    <path d="M12.5,16.5 L17.5,21.5" id="Line-20"></path>
                    <path d="M17.5,21.5 L23.5,15.5" id="Line-21"></path>
                    <path d="M23.5,15.5 L12.5,4.5" id="Line-22"></path>
                    <path d="M9.5,4.5 L12.5,4.5" id="Line-23"></path>
                    <path d="M0.5,7.5 L4.5,11.5" id="Line-24"></path>
                    <path d="M4.5,11.5 L9.5,4.5" id="Line-25"></path>
                    <path d="M0.5,41.5 L12.5,41.5" id="Line-26"></path>
                    <path d="M0.5,7.5 L6.5,1.5" id="Line-27"></path>
                    <path d="M6.5,1.5 L9.5,4.5" id="Line-28"></path>
                    <path d="M0.5,1.5 L6.5,1.5" id="Line-29"></path>
                </g>
                <circle id="Oval-47" stroke="#252324" fill="#D8D8D8" sketch:type="MSShapeGroup" cx="26.5" cy="16.5" r="0.5"></circle>
                <circle id="Oval-48" stroke="#252324" fill="#D8D8D8" sketch:type="MSShapeGroup" cx="26.5" cy="21.5" r="0.5"></circle>
                <circle id="Oval-49" stroke="#252324" fill="#D8D8D8" sketch:type="MSShapeGroup" cx="26.5" cy="26.5" r="0.5"></circle>
                <circle id="Oval-50" stroke="#252324" fill="#D8D8D8" sketch:type="MSShapeGroup" cx="26.5" cy="31.5" r="0.5"></circle>
            </g>
        </g>
    </g>
</svg>