<?xml version="1.0" encoding="UTF-8" standalone="no"?>
<svg width="32px" height="32px" viewBox="0 0 32 32" version="1.1" xmlns="http://www.w3.org/2000/svg" xmlns:xlink="http://www.w3.org/1999/xlink" xmlns:sketch="http://www.bohemiancoding.com/sketch/ns">
    <!-- Generator: Sketch 3.0.3 (7891) - http://www.bohemiancoding.com/sketch -->
    <title>ok</title>
    <desc>Created with Sketch.</desc>
    <defs></defs>
    <g id="Page-2" stroke="none" stroke-width="1" fill="none" fill-rule="evenodd" sketch:type="MSPage">
        <g id="Desktop-HD" sketch:type="MSArtboardGroup" transform="translate(-1194.000000, -2886.000000)">
            <g id="Group" sketch:type="MSLayerGroup" transform="translate(0.000000, -87.000000)">
                <g id="Footer" transform="translate(174.000000, 2919.000000)" sketch:type="MSShapeGroup">
                    <g id="Group" transform="translate(924.000000, 54.000000)">
                        <g id="ok" transform="translate(96.000000, 0.000000)">
                            <path d="M16,0 C7.164,0 0,7.164 0,16 C0,24.838 7.164,32 16,32 C24.836,32 32,24.838 32,16 C32,7.164 24.836,0 16,0 L16,0 Z" fill="#636462"></path>
                            <path d="M16,17 C18.7580327,17 21,14.7575322 21,12.000748 C21,9.24306615 18.7580327,7 16,7 C13.2425657,7 11,9.24306615 11,12.000748 C11,14.7575322 13.2425657,17 16,17 L16,17 Z" id="Fill-1" fill="#FFFFFF"></path>
                            <path d="M16,10 C17.1028902,10 18,10.8970152 18,12.0001445 C18,13.1024066 17.1028902,14 16,14 C14.8979769,14 14,13.1024066 14,12.0001445 C14,10.8970152 14.8979769,10 16,10 L16,10 Z" id="Fill-1" fill-opacity="0.803470335" fill="#4A4A4A"></path>
                            <path d="M18.1633019,20.8216878 C19.2516249,20.5949794 20.3012393,20.2012381 21.2679977,19.6460219 C21.9996246,19.224198 22.2200405,18.339889 21.7590547,17.6708799 C21.2983889,17.0004081 20.3319503,16.7985645 19.5990438,17.2203884 C17.4089616,18.4797169 14.5893028,18.4794244 12.4005002,17.2203884 C11.6675937,16.7985645 10.7008352,17.0004081 10.2411291,17.6708799 C9.78014334,18.3404741 9.99991933,19.224198 10.7315463,19.6460219 C11.6983047,20.200653 12.747919,20.5949794 13.8362421,20.8216878 L10.8470326,23.5550597 C10.2360106,24.1143712 10.2360106,25.0212048 10.8476724,25.5805163 C11.1538233,25.8598796 11.5543466,25.9997075 11.95487,25.9997075 C12.3560332,25.9997075 12.7571963,25.8598796 13.0633472,25.5805163 L15.9994521,22.8945338 L18.9381163,25.5805163 C19.5491383,26.1398279 20.5405296,26.1398279 21.1521914,25.5805163 C21.7644931,25.0212048 21.7644931,24.1137862 21.1521914,23.5550597 L18.1633019,20.8216878" id="Fill-3" fill="#FFFFFF"></path>
                        </g>
                    </g>
                </g>
            </g>
        </g>
    </g>
</svg>