<?xml version="1.0" encoding="UTF-8" standalone="no"?>
<svg width="172px" height="75px" viewBox="0 0 172 75" version="1.1" xmlns="http://www.w3.org/2000/svg" xmlns:xlink="http://www.w3.org/1999/xlink" xmlns:sketch="http://www.bohemiancoding.com/sketch/ns">
    <!-- Generator: Sketch 3.0.2 (7799) - http://www.bohemiancoding.com/sketch -->
    <title>Fill 8 + Fill 9</title>
    <description>Created with Sketch.</description>
    <defs></defs>
    <g id="Welcome" stroke="none" stroke-width="1" fill="none" fill-rule="evenodd" sketch:type="MSPage">
        <g id="Order" sketch:type="MSArtboardGroup" transform="translate(-233.000000, -1511.000000)">
            <g id="Fill-8-+-Fill-9" sketch:type="MSLayerGroup" transform="translate(233.000000, 1511.008638)">
                <path d="M158.688362,18.8782784 L156.057874,18.8782784 C155.519929,18.8782784 155.318114,19.0289826 155.165891,19.6545084 L150.677049,37.359159 L145.177063,19.7618594 C144.944252,19.0289826 144.908435,18.9587916 144.641873,18.8782784 L143.165797,18.8782784 C142.742191,18.8782784 142.661603,19.1033025 142.472875,19.6545084 L137.061054,37.359159 L132.599074,19.7246994 C132.406213,18.9085569 132.245036,18.8782784 131.592752,18.8782784 L127.95732,18.8782784 C127.57022,18.8782784 127.213427,18.9987041 127.213427,19.4590746 C127.213427,19.6070262 127.213427,19.6545084 127.334654,20.0742782 L134.576589,45.4400714 C134.767384,46.0621564 134.973332,46.1660667 135.666255,46.1660667 C136.240705,46.1660667 137.286977,46.1660667 137.397183,46.1289067 C137.780839,46.0986282 137.861427,45.9809551 138.056355,45.4063522 L143.242941,28.9252272 L148.775989,45.4400714 C148.968162,46.0249965 149.089389,46.1289067 149.468912,46.1660667 L151.37617,46.1660667 C151.914804,46.1660667 152.029143,46.0249965 152.22407,45.4063522 L159.353733,20.0742782 C159.423989,19.6909802 159.461873,19.5299538 159.461873,19.3785614 C159.461873,18.8782784 159.118855,18.8782784 158.688362,18.8782784 L158.688362,18.8782784 Z M96.0298509,43.5889555 C95.5249681,43.5889555 92.8145806,43.5889555 90.8770151,40.3766844 C89.4884151,38.0142752 89.1722606,34.8054449 89.1722606,32.4134453 C89.1722606,29.8191304 89.5249209,26.7348547 90.8770151,24.5630622 C92.2022465,22.5172007 94.2031806,21.5056243 96.0698007,21.5056243 C96.9514516,21.5056243 99.3257097,21.7340892 101.064215,24.4426365 C102.685626,26.9598789 102.917748,30.4006148 102.917748,32.2586121 C102.957698,34.530186 102.722821,37.7789288 101.407232,40.1413381 C100.018632,42.5739384 97.9233338,43.5889555 96.0298509,43.5889555 L96.0298509,43.5889555 Z M108.18079,52.9463808 C105.860258,52.3215432 101.064215,50.6548507 99.78651,46.2906213 C106.708158,43.6997472 108.372963,37.0095803 108.372963,32.4134453 C108.372963,24.0627792 103.415054,18.25 96.1035514,18.25 C89.3671881,18.25 83.723934,23.1317161 83.723934,32.7121011 C83.723934,38.9852508 86.6258051,45.4400714 94.287213,46.6766719 C97.4590896,54.1327466 107.602896,55.3019086 108.372963,55.3019086 C109.459184,55.3019086 109.725057,54.6034392 109.725057,54.176788 C109.725057,53.3296788 109.146473,53.1720931 108.18079,52.9463808 L108.18079,52.9463808 Z M119.946007,18.8782784 L116.263049,18.8782784 C115.570126,18.8782784 115.495737,19.1466558 115.462675,19.6909802 L115.462675,45.3162049 C115.462675,46.0249965 115.768498,46.1289067 116.306442,46.1660667 L119.908813,46.1660667 C120.413007,46.1660667 120.756024,46.0621564 120.756024,45.3162049 L120.756024,19.6909802 C120.756024,18.9987041 120.527346,18.8782784 119.946007,18.8782784 L119.946007,18.8782784 Z M170.454956,18.8782784 L166.776131,18.8782784 C166.07632,18.8782784 165.995732,19.1466558 165.968869,19.6909802 L165.968869,45.3162049 C165.968869,46.0249965 166.275381,46.1289067 166.809881,46.1660667 L170.419139,46.1660667 C170.916446,46.1660667 171.262218,46.0621564 171.262218,45.3162049 L171.262218,19.6909802 C171.262218,18.9987041 171.024586,18.8782784 170.454956,18.8782784 L170.454956,18.8782784 Z" id="Fill-8" fill="#375FB7" sketch:type="MSShapeGroup"></path>
                <path d="M69.7319295,71.4750379 C67.7284325,67.4020872 64.1751552,64.4130264 60.3249808,62.1209113 C58.9900602,61.3258356 57.4826938,60.7649337 56.1689801,60.3350576 C53.1475503,59.3576609 50.223226,59.131293 46.8133745,58.5486463 C44.0430794,58.0752808 41.8543008,56.9373078 39.505354,55.3443687 C38.2820488,54.5085914 37.2814164,53.3628127 36.4454168,52.1484544 C36.2897133,51.9036871 35.5084053,50.9530531 35.5865361,50.626325 C35.5865361,50.626325 35.0418528,52.8046985 36.1206159,55.8617812 C26.2047008,55.4179662 17.5120908,49.9243613 13.5307683,43.2649056 C6.20042473,31.0109272 8.78376394,16.1598503 18.5556951,9.60131231 C28.3253941,3.04054411 43.2221479,7.66882123 51.1965125,19.5113228 C56.2019067,26.943552 57.4826938,35.5901393 55.3385613,42.6226004 C55.322377,42.6772409 55.3022863,42.7285361 55.286102,42.7831767 C51.0491802,39.7043493 47.178915,41.2749861 47.178915,41.2749861 C51.4253242,40.8367467 54.7827164,44.2127517 54.7827164,44.2127517 C55.2754986,44.6509912 55.7493061,45.1355079 56.1801417,45.6746651 C56.2755729,45.8051333 56.3760267,45.9383893 56.472016,46.0800087 C57.5837057,47.5881992 58.2779537,49.2653294 58.5726185,50.9669921 C67.0034902,40.2814203 68.3964509,25.4816386 60.9355172,13.9876099 C51.4331373,-0.662189094 31.1699134,-4.40283615 15.6916431,5.62147349 C0.205559792,15.6535889 -4.63966618,35.6497979 4.86773645,50.2973666 C12.6774683,62.3495095 30.9980256,66.0249224 41.4999218,62.7035579 C45.4706408,61.4563039 59.0659587,60.2692659 68.5298313,71.4371241 C68.5298313,71.4371241 69.3468563,72.3710314 69.7916438,73.4354069 C69.7916438,73.4354069 69.9227919,73.8084122 70.2738225,73.6283214 C70.3664633,73.5792565 70.6276434,73.2770608 69.7319295,71.4750379 L69.7319295,71.4750379 Z M50.244991,51.6962761 C50.2338294,51.6884703 50.2265744,51.6884703 50.2154129,51.6801069 C50.1936479,51.6801069 50.1774636,51.6717436 50.1629536,51.6667256 C50.1389563,51.6583622 50.1194236,51.6477686 50.0976586,51.6421931 C50.0848228,51.6421931 50.0652901,51.6421931 50.0597094,51.6366175 C50.0245505,51.6254664 49.992182,51.6176606 49.9536747,51.6037217 C49.514468,51.527894 49.0786097,51.5931281 48.7169757,51.8273019 C47.8960442,52.385416 47.7704768,53.6460514 48.4429598,54.6502108 C48.7571572,55.1051769 49.1768313,55.420754 49.6288738,55.5952692 C49.637803,55.5952692 49.6456161,55.5952692 49.6651488,55.6058628 C49.6779846,55.6086505 49.6975173,55.6198017 49.7109111,55.6198017 C49.7326761,55.6303952 49.7544411,55.6303952 49.7739738,55.6359708 C49.7923904,55.6359708 49.8013196,55.6443342 49.8141554,55.6493522 C49.8504304,55.6577155 49.8800085,55.6710969 49.9157254,55.6738847 C50.3515837,55.7608635 50.7896743,55.6984171 51.1552148,55.4536498 C51.981169,54.8955357 52.1067364,53.6404758 51.4331373,52.6385467 C51.1222883,52.1785625 50.7003819,51.8574099 50.244991,51.6962761 L50.244991,51.6962761 Z M55.7364703,49.3824163 C55.0411062,49.12371 54.9786015,49.9433182 55.1532797,50.4768998 C55.5400271,51.7263841 56.0657358,52.6820361 56.450251,52.8727204 C56.8174658,53.0957431 57.253324,52.5811183 56.9754016,51.3316341 C56.8559731,50.7896891 56.4446702,49.6572917 55.7364703,49.3824163 L55.7364703,49.3824163 Z" id="Fill-9" fill="#EC912D" sketch:type="MSShapeGroup"></path>
            </g>
        </g>
    </g>
</svg>