<?xml version="1.0" encoding="UTF-8" standalone="no"?>
<svg width="48px" height="48px" viewBox="0 0 48 48" version="1.1" xmlns="http://www.w3.org/2000/svg" xmlns:xlink="http://www.w3.org/1999/xlink" xmlns:sketch="http://www.bohemiancoding.com/sketch/ns">
    <!-- Generator: Sketch 3.0.2 (7799) - http://www.bohemiancoding.com/sketch -->
    <title>rasprodaza</title>
    <description>Created with Sketch.</description>
    <defs></defs>
    <g id="Welcome" stroke="none" stroke-width="1" fill="none" fill-rule="evenodd" sketch:type="MSPage">
        <g id="Nav" sketch:type="MSArtboardGroup" transform="translate(-20.000000, -187.000000)">
            <g id="rasprodaza" sketch:type="MSLayerGroup" transform="translate(21.000000, 188.000000)">
                <path d="M46.4380952,23.2190476 C46.4380952,21.247619 45.1238095,19.7142857 43.3714286,19.0571429 C44.6857143,17.7428571 45.3428571,15.7714286 44.4666667,14.0190476 C43.8095238,12.4857143 42.2761905,11.3904762 40.7428571,11.3904762 C41.1809524,9.85714286 40.9619048,8.1047619 39.647619,6.79047619 C38.3333333,5.47619048 36.1428571,5.25714286 34.6095238,5.91428571 C34.6095238,4.16190476 33.7333333,2.40952381 31.7619048,1.53333333 C30.2285714,0.876190476 28.4761905,1.31428571 27.1619048,2.40952381 C26.5047619,0.876190476 24.9714286,0 23.2190476,0 C21.247619,0 19.7142857,1.31428571 19.0571429,3.06666667 C17.7428571,1.75238095 15.7714286,1.0952381 14.0190476,1.97142857 C12.4857143,2.62857143 11.3904762,4.16190476 11.3904762,5.6952381 C9.85714286,5.25714286 8.1047619,5.47619048 6.79047619,6.79047619 C5.47619048,8.1047619 5.25714286,10.2952381 5.91428571,11.8285714 C4.16190476,11.8285714 2.40952381,12.7047619 1.53333333,14.6761905 C0.876190476,16.2095238 1.31428571,17.9619048 2.40952381,19.2761905 C0.876190476,19.9333333 0,21.4666667 0,23.2190476 C0,25.1904762 1.31428571,26.7238095 3.06666667,27.3809524 C1.75238095,28.6952381 1.0952381,30.6666667 1.97142857,32.4190476 C2.62857143,33.952381 4.16190476,35.047619 5.6952381,35.047619 C5.25714286,36.5809524 5.47619048,38.3333333 6.79047619,39.647619 C8.1047619,40.9619048 10.2952381,41.1809524 11.8285714,40.5238095 C11.8285714,42.2761905 12.7047619,44.0285714 14.6761905,44.9047619 C16.2095238,45.5619048 17.9619048,45.1238095 19.2761905,44.0285714 C19.9333333,45.5619048 21.4666667,46.4380952 23.2190476,46.4380952 C25.1904762,46.4380952 26.7238095,45.1238095 27.3809524,43.3714286 C28.6952381,44.6857143 30.6666667,45.3428571 32.4190476,44.4666667 C33.952381,43.8095238 35.047619,42.2761905 35.047619,40.7428571 C36.5809524,41.1809524 38.3333333,40.9619048 39.647619,39.647619 C40.9619048,38.3333333 41.1809524,36.1428571 40.5238095,34.6095238 C42.2761905,34.6095238 44.0285714,33.7333333 44.9047619,31.7619048 C45.5619048,30.2285714 45.1238095,28.4761905 44.0285714,27.1619048 C45.3428571,26.5047619 46.4380952,24.9714286 46.4380952,23.2190476 L46.4380952,23.2190476 Z" id="Shape" stroke="#000000" sketch:type="MSShapeGroup"></path>
                <path d="M13.56,25.42 C13.56,26.452 12.6,26.992 11.568,26.992 C10.812,26.992 9.888,26.62 9.396,25.948 L9,26.404 C9.42,27.16 10.584,27.616 11.58,27.616 C13.068,27.616 14.256,26.752 14.256,25.408 C14.256,22.492 9.912,23.452 9.912,21.1 C9.912,20.212 10.596,19.624 11.7,19.624 C12.468,19.624 13.092,19.864 13.572,20.344 L13.932,19.852 C13.464,19.336 12.612,19 11.676,19 C10.116,19 9.216,19.924 9.216,21.1 C9.216,23.908 13.56,23.044 13.56,25.42 Z M15.156,27.508 L15.828,27.508 L17.052,24.652 L21.084,24.652 L22.308,27.508 L23.016,27.508 L19.356,19.036 L18.816,19.036 L15.156,27.508 Z M19.068,19.948 L20.808,24.028 L17.316,24.028 L19.068,19.948 Z M24.6,27.508 L29.688,27.508 L29.688,26.884 L25.26,26.884 L25.26,19.108 L24.6,19.108 L24.6,27.508 Z M31.224,27.508 L35.988,27.508 L35.988,26.884 L31.884,26.884 L31.884,23.56 L35.508,23.56 L35.508,22.936 L31.884,22.936 L31.884,19.732 L35.868,19.732 L35.868,19.108 L31.224,19.108 L31.224,27.508 Z" id="SALE" fill="#252324" sketch:type="MSShapeGroup"></path>
            </g>
        </g>
    </g>
</svg>