<?xml version="1.0" encoding="UTF-8" standalone="no"?>
<svg width="40px" height="48px" viewBox="0 0 40 48" version="1.1" xmlns="http://www.w3.org/2000/svg" xmlns:xlink="http://www.w3.org/1999/xlink" xmlns:sketch="http://www.bohemiancoding.com/sketch/ns">
    <!-- Generator: Sketch 3.0.3 (7891) - http://www.bohemiancoding.com/sketch -->
    <title>riukzak</title>
    <desc>Created with Sketch.</desc>
    <defs></defs>
    <g id="Welcome" stroke="none" stroke-width="1" fill="none" fill-rule="evenodd" sketch:type="MSPage">
        <g id="Nav-2" sketch:type="MSArtboardGroup" transform="translate(-22.000000, -512.000000)" stroke-width="2">
            <g id="riukzak" sketch:type="MSLayerGroup" transform="translate(23.000000, 513.000000)">
                <path d="M6,46 L2,46 C0.9,46 0,45.1 0,44 L0,35 C0,33.3 1.3,32 3,32 L6,32 L6,46 L6,46 Z" id="Shape" stroke="#E29454" sketch:type="MSShapeGroup"></path>
                <path d="M32,46 L36,46 C37.1,46 38,45.1 38,44 L38,35 C38,33.3 36.7,32 35,32 L32,32 L32,46 L32,46 Z" id="Shape" stroke="#E29454" sketch:type="MSShapeGroup"></path>
                <path d="M28,46 L10,46 L10,35 C10,33.3 11.3,32 13,32 L25,32 C26.7,32 28,33.3 28,35 L28,46 L28,46 Z" id="Shape" stroke="#252324" sketch:type="MSShapeGroup"></path>
                <path d="M32,20 L32,46 L6,46 L6,20" id="Shape" stroke="#252324" sketch:type="MSShapeGroup"></path>
                <path d="M14,20 L24,20" id="Shape" stroke="#252324" sketch:type="MSShapeGroup"></path>
                <rect id="Rectangle-path" stroke="#E29454" sketch:type="MSShapeGroup" x="10" y="14" width="4" height="10"></rect>
                <rect id="Rectangle-path" stroke="#E29454" sketch:type="MSShapeGroup" x="24" y="14" width="4" height="10"></rect>
                <path d="M10,38 L28,38" id="Shape" stroke="#252324" sketch:type="MSShapeGroup"></path>
                <path d="M0,38 L6,38" id="Shape" stroke="#E29454" sketch:type="MSShapeGroup"></path>
                <path d="M32,38 L38,38" id="Shape" stroke="#E29454" sketch:type="MSShapeGroup"></path>
                <path d="M10,20 L6,20 C4.9,20 4,19.1 4,18 L4,6 C4,2.7 6.7,0 10,0 L28,0 C31.3,0 34,2.7 34,6 L34,18 C34,19.1 33.1,20 32,20 L28,20" id="Shape" stroke="#252324" sketch:type="MSShapeGroup"></path>
            </g>
        </g>
    </g>
</svg>