<?xml version="1.0" encoding="UTF-8" standalone="no"?>
<svg width="32px" height="32px" viewBox="0 0 32 32" version="1.1" xmlns="http://www.w3.org/2000/svg" xmlns:xlink="http://www.w3.org/1999/xlink" xmlns:sketch="http://www.bohemiancoding.com/sketch/ns">
    <!-- Generator: Sketch 3.0.3 (7891) - http://www.bohemiancoding.com/sketch -->
    <title>vk</title>
    <desc>Created with Sketch.</desc>
    <defs></defs>
    <g id="Page-2" stroke="none" stroke-width="1" fill="none" fill-rule="evenodd" sketch:type="MSPage">
        <g id="Desktop-HD" sketch:type="MSArtboardGroup" transform="translate(-1242.000000, -2886.000000)">
            <g id="Group" sketch:type="MSLayerGroup" transform="translate(0.000000, -87.000000)">
                <g id="Footer" transform="translate(174.000000, 2919.000000)" sketch:type="MSShapeGroup">
                    <g id="Group" transform="translate(924.000000, 54.000000)">
                        <g id="vk" transform="translate(144.000000, 0.000000)">
                            <path d="M0,16 C0,24.838 7.164,32 16,32 C24.837,32 32,24.838 32,16 C32,7.164 24.837,0 16,0 C7.164,0 0,7.164 0,16 Z" fill="#636462"></path>
                            <path d="M15.7854278,21.9538689 L16.9808487,21.9538689 C16.9808487,21.9538689 17.3418554,21.9155074 17.5264434,21.7240392 C17.6961011,21.5480515 17.6906782,21.2178029 17.6906782,21.2178029 C17.6906782,21.2178029 17.6672966,19.671392 18.4116352,19.4436671 C19.1456915,19.2192012 20.0880697,20.938205 21.0868596,21.5992454 C21.8421847,22.0993032 22.4161614,21.9898541 22.4161614,21.9898541 L25.0870897,21.9538689 C25.0870897,21.9538689 26.4842124,21.8707636 25.8217095,20.8117138 C25.767481,20.7252137 25.4357718,20.0283239 23.8357501,18.5965223 C22.160865,17.0979106 22.385385,17.340369 24.4027546,14.7481482 C25.6313464,13.1694865 26.122431,12.2057635 25.9689715,11.7930206 C25.8227659,11.399764 24.9190519,11.5036457 24.9190519,11.5036457 L21.9118366,11.5215703 C21.9118366,11.5215703 21.6887252,11.4923069 21.5235044,11.5876336 C21.3618754,11.6808556 21.258137,11.8986676 21.258137,11.8986676 C21.258137,11.8986676 20.7819829,13.1201936 20.1474393,14.1592139 C18.8083482,16.3513206 18.2728244,16.4673557 18.0539386,16.3310195 C17.5446839,16.0137392 17.6719448,15.05667 17.6719448,14.3765506 C17.6719448,12.2520689 18.0061894,11.366291 17.0210622,11.1370045 C16.6942125,11.0609604 16.453424,11.0106491 15.6173899,11.0024336 C14.5443,10.9919097 13.63629,11.0056248 13.1220351,11.2484906 C12.7799027,11.4100164 12.5159439,11.7698679 12.6767982,11.7905763 C12.8756125,11.8161054 13.3256384,11.9076978 13.5642436,12.2207007 C13.8725008,12.6250244 13.8617255,13.5326649 13.8617255,13.5326649 C13.8617255,13.5326649 14.0388484,16.033497 13.4481806,16.3440557 C13.0428756,16.5571149 12.4867873,16.1221699 11.2929158,14.1333453 C10.6813313,13.1146261 10.2194033,11.9884267 10.2194033,11.9884267 C10.2194033,11.9884267 10.1304545,11.7780155 9.97157213,11.6653751 C9.77888499,11.5289032 9.50964415,11.4856531 9.50964415,11.4856531 L6.65187408,11.5036457 C6.65187408,11.5036457 6.22297617,11.5151881 6.06536147,11.6950459 C5.92514213,11.8551459 6.05416364,12.1858698 6.05416364,12.1858698 C6.05416364,12.1858698 8.29133461,17.2320741 10.8247198,19.7750699 C13.1478816,22.1069076 15.7854278,21.9538689 15.7854278,21.9538689" id="Fill-4" fill="#FFFFFF"></path>
                        </g>
                    </g>
                </g>
            </g>
        </g>
    </g>
</svg>