<?xml version="1.0" encoding="UTF-8" standalone="no"?>
<svg width="283px" height="71px" viewBox="0 0 283 71" version="1.1" xmlns="http://www.w3.org/2000/svg" xmlns:xlink="http://www.w3.org/1999/xlink" xmlns:sketch="http://www.bohemiancoding.com/sketch/ns">
    <!-- Generator: Sketch 3.0.2 (7799) - http://www.bohemiancoding.com/sketch -->
    <title>WebMoney logo blue_8</title>
    <description>Created with Sketch.</description>
    <defs></defs>
    <g id="Welcome" stroke="none" stroke-width="1" fill="none" fill-rule="evenodd" sketch:type="MSPage">
        <g id="Order" sketch:type="MSArtboardGroup" transform="translate(-187.000000, -1148.000000)" fill="#0068A3">
            <g id="WebMoney-logo-blue_8" sketch:type="MSLayerGroup" transform="translate(187.000000, 1148.000000)">
                <path d="M247.302793,0.172032743 C252.849451,0.172032743 258.102416,1.46014568 262.780826,3.74704376 C263.515771,4.09466364 264.248577,4.4771166 264.983521,4.89937879 L261.731516,7.80189817 L256.845668,2.76389796 L248.599461,10.0987486 L243.701494,4.76786615 L228.340368,18.5759819 L238.18834,29.3991162 L234.318297,32.793564 L244.017997,43.6330486 L240.170766,47.0196766 L254.03135,62.4052331 L262.259023,54.8514317 L269.372516,62.9462121 C267.957516,64.0430985 266.416343,65.075295 264.718343,66.0292947 C259.574443,68.9545623 253.629305,70.6293934 247.302793,70.6293934 C227.846365,70.6293934 211.977693,54.802381 211.977693,35.4017794 C211.977693,15.9969125 227.846365,0.172032743 247.302793,0.172032743" id="Fill-1" sketch:type="MSShapeGroup"></path>
                <path d="M240.865078,33.1745952 L249.265259,25.6307461 L256.829272,34.0098781 L248.429804,41.5508837 L240.865078,33.1745952" id="Fill-2" sketch:type="MSShapeGroup"></path>
                <path d="M246.838018,47.6495155 L255.238912,40.1077991 L262.803637,48.4847984 L254.403456,56.0286475 L246.838018,47.6495155" id="Fill-3" sketch:type="MSShapeGroup"></path>
                <path d="M234.854358,18.8688641 L243.254539,11.3271477 L250.816413,19.704147 L242.416232,27.2458634 L234.854358,18.8688641" id="Fill-4" sketch:type="MSShapeGroup"></path>
                <path d="M250.268947,14.8090335 L256.569083,9.15327935 L262.241202,15.4360289 L255.941065,21.0939157 L250.268947,14.8090335" id="Fill-5" sketch:type="MSShapeGroup"></path>
                <path d="M261.462773,40.719866 L267.765048,35.0619792 L273.437166,41.3461505 L267.13703,47.0026155 L261.462773,40.719866" id="Fill-6" sketch:type="MSShapeGroup"></path>
                <path d="M267.005154,53.4104798 L273.303864,47.7518821 L278.977408,54.0346316 L272.677272,59.6910966 L267.005154,53.4104798" id="Fill-7" sketch:type="MSShapeGroup"></path>
                <path d="M269.542887,24.3248612 L273.742977,20.5536475 L277.523914,24.7421472 L273.325962,28.51265 L269.542887,24.3248612" id="Fill-8" sketch:type="MSShapeGroup"></path>
                <path d="M264.176579,11.8795007 L268.37667,8.10899794 L272.15832,12.2974976 L267.957516,16.0680004 L264.176579,11.8795007" id="Fill-9" sketch:type="MSShapeGroup"></path>
                <path d="M274.912758,36.7695108 L279.112849,32.9982972 L282.894499,37.186086 L278.694408,40.9572996 L274.912758,36.7695108" id="Fill-10" sketch:type="MSShapeGroup"></path>
                <path d="M256.076506,27.4441987 L262.375929,21.785601 L268.048048,28.0683506 L261.75005,33.7248156 L256.076506,27.4441987" id="Fill-11" sketch:type="MSShapeGroup"></path>
                <path d="M16.826738,29.3280283 L16.5444509,29.3280283 L11.2230529,49.3861931 L6.87112594,49.3861931 L0.341453401,20.8870498 L4.85519647,20.8870498 L9.36965239,42.1508656 L9.65193955,42.1508656 L14.8913602,20.8870498 L18.478403,20.8870498 L24.0820882,42.1508656 L24.3629496,42.1508656 L28.4739345,20.8870498 L33.1901259,20.8870498 L26.6597406,49.3861931 L22.3071008,49.3861931 L16.826738,29.3280283" id="Fill-12" sketch:type="MSShapeGroup"></path>
                <path d="M51.0504912,44.9638142 L51.0504912,48.0184617 C49.2370101,49.0648758 46.8190353,49.8688801 43.9163249,49.8688801 C37.1457103,49.8688801 34.3648967,45.6882 34.3648967,39.3364952 C34.3648967,33.2279111 37.4686297,28.8062431 43.5142796,28.8062431 C48.5512519,28.8062431 51.6549849,32.0627802 51.6549849,38.6135312 L51.6549849,40.0999794 L38.5165139,40.0999794 C38.5165139,44.9225832 40.4910982,47.0537988 44.6427154,47.0537988 C46.8190353,47.0537988 48.833539,46.2903146 51.0504912,44.9638142 L51.0504912,44.9638142 Z M38.5977783,37.4078802 L47.8255743,37.4078802 C47.6259773,33.1866801 45.5694156,31.499764 43.3930957,31.499764 C40.933063,31.499764 39.0397431,33.3892807 38.5977783,37.4078802 L38.5977783,37.4078802 Z" id="Fill-13" sketch:type="MSShapeGroup"></path>
                <path d="M59.513403,30.294113 C60.7223904,29.6507674 62.7775264,28.8062431 64.9545592,28.8062431 C69.9516121,28.8062431 72.6525869,32.2632482 72.6525869,38.6959932 C72.6525869,46.2106962 69.0263375,49.8688801 63.1817103,49.8688801 C61.044597,49.8688801 57.7398413,49.1857252 55.3211537,47.8976123 L55.3211537,19.8434793 L59.513403,18.8382963 L59.513403,30.294113 L59.513403,30.294113 Z M59.4734836,46.4111641 C60.7623098,46.9741803 62.1737456,47.0537988 63.1817103,47.0537988 C66.1642594,47.0537988 68.421131,45.2055131 68.421131,38.6959932 C68.421131,33.5897486 66.5670176,31.9419308 63.8667557,31.9419308 C62.2535844,31.9419308 61.0859421,32.3840976 59.4734836,33.2684312 L59.4734836,46.4111641 L59.4734836,46.4111641 Z" id="Fill-14" sketch:type="MSShapeGroup"></path>
                <path d="M90.991272,43.3565166 L91.1937204,43.3565166 L99.8184484,20.8870498 L104.816927,20.8870498 L104.816927,49.3861931 L100.464287,49.3861931 L100.464287,28.7259137 L100.100736,28.7259137 L91.8780529,49.3861931 L89.2996877,49.3861931 L81.0762922,29.2086006 L80.7141662,29.2086006 L80.7141662,49.3861931 L77.0864912,49.3861931 L77.0864912,20.8870498 L81.963073,20.8870498 L90.991272,43.3565166" id="Fill-15" sketch:type="MSShapeGroup"></path>
                <path d="M109.250118,39.3364952 C109.250118,32.3023465 113.119448,28.8062431 118.439421,28.8062431 C123.760106,28.8062431 127.630149,32.3023465 127.630149,39.3364952 C127.630149,46.2106962 123.961841,49.8688801 118.439421,49.8688801 C112.917,49.8688801 109.250118,46.2106962 109.250118,39.3364952 L109.250118,39.3364952 Z M123.397267,39.3364952 C123.397267,33.9110659 121.179602,31.6206134 118.439421,31.6206134 C115.779078,31.6206134 113.481574,33.9110659 113.481574,39.3364952 C113.481574,44.8450974 115.578768,47.0537988 118.439421,47.0537988 C121.300786,47.0537988 123.397267,44.8450974 123.397267,39.3364952 L123.397267,39.3364952 Z" id="Fill-16" sketch:type="MSShapeGroup"></path>
                <path d="M131.458134,31.7805612 C133.271615,30.6950489 137.101738,28.8062431 141.734526,28.8062431 C146.573327,28.8062431 148.385383,30.6950489 148.385383,34.8344979 L148.385383,49.3861931 L144.193846,49.3861931 L144.193846,35.7600625 C144.193846,32.5845655 142.623446,32.0215493 140.56831,32.0215493 C138.955139,32.0215493 136.89929,32.7466459 135.650383,33.4688991 L135.650383,49.3861931 L131.458134,49.3861931 L131.458134,31.7805612" id="Fill-17" sketch:type="MSShapeGroup"></path>
                <path d="M168.819123,44.9638142 L168.819123,48.0184617 C167.006355,49.0648758 164.589093,49.8688801 161.68567,49.8688801 C154.915768,49.8688801 152.134242,45.6882 152.134242,39.3364952 C152.134242,33.2279111 155.238688,28.8062431 161.283625,28.8062431 C166.322736,28.8062431 169.427181,32.0627802 169.427181,38.6135312 L169.427181,40.0999794 L156.287285,40.0999794 C156.287285,44.9225832 158.261869,47.0537988 162.412773,47.0537988 C164.589093,47.0537988 166.60431,46.2903146 168.819123,44.9638142 L168.819123,44.9638142 Z M156.367123,37.4078802 L165.596345,37.4078802 C165.396035,33.1866801 163.338761,31.499764 161.162441,31.499764 C158.703121,31.499764 156.811227,33.3892807 156.367123,37.4078802 L156.367123,37.4078802 Z" id="Fill-18" sketch:type="MSShapeGroup"></path>
                <path d="M185.104811,29.4893979 L189.417531,29.4893979 L182.121549,49.5866611 C180.10562,55.1343616 177.6463,58.0269287 173.013511,58.0269287 L173.013511,54.7327149 C175.754406,54.7327149 177.445277,52.5602683 178.414035,49.5866611 L170.675375,29.4893979 L175.10928,29.4893979 L180.268149,44.2799485 L180.508378,44.2799485 L185.104811,29.4893979" id="Fill-19" sketch:type="MSShapeGroup"></path>
            </g>
        </g>
    </g>
</svg>