<?xml version="1.0" encoding="UTF-8" standalone="no"?>
<svg width="176px" height="75px" viewBox="0 0 176 75" version="1.1" xmlns="http://www.w3.org/2000/svg" xmlns:xlink="http://www.w3.org/1999/xlink" xmlns:sketch="http://www.bohemiancoding.com/sketch/ns">
    <!-- Generator: Sketch 3.0.2 (7799) - http://www.bohemiancoding.com/sketch -->
    <title>yandex_money</title>
    <description>Created with Sketch.</description>
    <defs></defs>
    <g id="Welcome" stroke="none" stroke-width="1" fill="none" fill-rule="evenodd" sketch:type="MSPage">
        <g id="Order" sketch:type="MSArtboardGroup" transform="translate(-241.000000, -1268.000000)">
            <g id="yandex_money" sketch:type="MSLayerGroup" transform="translate(241.000000, 1269.000000)">
                <path d="M14.515875,13.7058028 L13.080375,13.7058028 C10.828125,13.7058028 8.64325,12.0714288 8.64325,7.99027276 C8.64325,3.73707733 10.68925,2.00166437 12.77375,2.00166437 L14.515875,2.00166437 L14.515875,13.7058028 L14.515875,13.7058028 Z M16.7695,-0.176135541 L12.8755,-0.176135541 C9.051625,-0.176135541 5.808,2.71576427 5.808,8.33025532 C5.808,11.6973115 7.37825,14.1809591 10.17775,15.4057156 L4.954125,24.7955149 C4.783625,25.1013627 4.954125,25.3389409 5.225,25.3389409 L7.6505,25.3389409 C7.855375,25.3389409 7.992875,25.2720367 8.06025,25.1013627 L12.808125,15.8836027 L14.515875,15.8836027 L14.515875,25.1013627 C14.515875,25.2037671 14.619,25.3389409 14.755125,25.3389409 L16.872625,25.3389409 C17.0775,25.3389409 17.14625,25.2379019 17.14625,25.0672279 L17.14625,0.163847015 C17.14625,-0.0723657649 17.010125,-0.176135541 16.7695,-0.176135541 L16.7695,-0.176135541 Z" id="Fill-1" fill="#D9222A" sketch:type="MSShapeGroup"></path>
                <path d="M29.607875,8.2824666 L27.489,8.2824666 C27.3185,8.2824666 27.21675,8.41900578 27.21675,8.52004478 L27.21675,15.0193097 L23.288375,15.0193097 L23.288375,8.52004478 C23.288375,8.3493708 23.222375,8.2824666 23.0505,8.2824666 L20.931625,8.2824666 C20.7625,8.2824666 20.659375,8.38487099 20.659375,8.52004478 L20.659375,25.0549394 C20.659375,25.2228826 20.72675,25.3252869 20.89725,25.3252869 L23.0505,25.3252869 C23.186625,25.3252869 23.288375,25.2228826 23.288375,25.0549394 L23.288375,17.1629748 L27.21675,17.1629748 L27.21675,25.0549394 C27.21675,25.2228826 27.3185,25.3252869 27.489,25.3252869 L29.607875,25.3252869 C29.778375,25.3252869 29.84575,25.1901132 29.84575,25.0549394 L29.84575,8.52004478 C29.84575,8.38487099 29.744,8.2824666 29.607875,8.2824666" id="Fill-2" fill="#1A1918" sketch:type="MSShapeGroup"></path>
                <path d="M77.95425,24.2384351 L77.67925,23.0805828 C77.64625,22.9781785 77.611875,22.9467744 77.510125,22.9467744 C77.339625,22.9467744 76.417,23.318161 75.084625,23.318161 C72.49,23.318161 71.225,20.8358787 71.225,16.8885311 C71.225,13.4190705 72.285125,9.98374478 74.06025,9.98374478 C74.540125,9.98374478 75.120375,10.1189186 76.041625,10.9695576 C76.143375,11.0733274 76.2135,11.1074622 76.313875,11.1074622 C76.417,11.1074622 76.51875,11.0378272 76.6205,10.8671533 L77.545875,9.37204925 C77.611875,9.26827948 77.64625,9.1645097 77.64625,9.06347071 C77.64625,8.92966231 77.510125,8.82589254 77.30525,8.72485354 C75.904125,8.01075364 74.9485,7.87421446 74.130375,7.87421446 C70.918375,7.87421446 68.4255,11.6863883 68.4255,17.6381312 C68.4255,22.7747351 70.81525,25.7349045 74.23075,25.7349045 C75.667625,25.7349045 77.202125,25.0549394 77.818125,24.611187 C77.95425,24.5087826 77.98725,24.3736089 77.95425,24.2384351" id="Fill-3" fill="#1A1918" sketch:type="MSShapeGroup"></path>
                <path d="M63.10975,15.9696224 L67.208625,8.52004478 C67.274625,8.41900578 67.241625,8.2824666 67.1055,8.2824666 L65.091125,8.2824666 C64.510875,8.2824666 64.306,8.48727537 64.1025,8.92966231 L61.026625,15.2896573 C60.8575,15.6665054 60.685625,15.9040836 60.515125,16.0051226 L60.515125,8.52004478 C60.515125,8.38487099 60.446375,8.2824666 60.31025,8.2824666 L58.089625,8.2824666 C57.9865,8.2824666 57.88475,8.38487099 57.88475,8.52004478 L57.88475,25.0890742 C57.88475,25.1901132 57.9535,25.3252869 58.089625,25.3252869 L60.31025,25.3252869 C60.446375,25.3252869 60.515125,25.2228826 60.515125,25.0890742 L60.515125,16.5499139 C60.616875,16.6168181 60.685625,16.7178571 60.754375,16.8557617 L64.645625,24.8146304 C64.851875,25.2228826 65.159875,25.3252869 65.604,25.3252869 L67.788875,25.3252869 C67.925,25.3252869 67.959375,25.1901132 67.890625,25.0890742 L63.10975,15.9696224" id="Fill-4" fill="#1A1918" sketch:type="MSShapeGroup"></path>
                <path d="M39.853,23.1829872 L34.901625,23.1829872 C36.642375,20.2228178 37.32575,16.8885311 37.563625,12.807375 C37.632375,11.9226011 37.66675,11.0036924 37.66675,10.4261317 L39.853,10.4261317 L39.853,23.1829872 L39.853,23.1829872 Z M43.542125,23.1829872 L43.132375,23.1829872 C42.6195,23.1829872 42.482,22.9781785 42.482,22.5712917 L42.482,8.52004478 C42.482,8.3493708 42.41325,8.2824666 42.277125,8.2824666 L35.446125,8.2824666 C35.275625,8.2824666 35.17525,8.38487099 35.17525,8.52004478 L35.17525,9.7461666 C35.17525,13.8614575 34.934625,19.1687354 32.74975,23.1829872 L31.997625,23.1829872 C31.79275,23.1829872 31.724,23.2840262 31.724,23.4560656 L31.724,28.4233609 C31.724,28.5940349 31.860125,28.6595737 31.964625,28.6595737 L33.603625,28.6595737 C33.977625,28.6595737 34.115125,28.3892261 34.115125,28.1489172 L34.115125,25.3252869 L41.42325,25.3252869 L41.42325,28.4233609 C41.42325,28.5585347 41.526375,28.6595737 41.6625,28.6595737 L43.404625,28.6595737 C43.6095,28.6595737 43.814375,28.4916305 43.814375,28.1489172 L43.814375,23.4560656 C43.814375,23.2840262 43.712625,23.1829872 43.542125,23.1829872 L43.542125,23.1829872 Z" id="Fill-5" fill="#1A1918" sketch:type="MSShapeGroup"></path>
                <path d="M50.1325,15.2568879 C49.346,15.2568879 48.11675,15.3920617 48.11675,15.3920617 C48.11675,15.3920617 48.11675,14.8814051 48.186875,14.3379792 C48.492125,11.4460794 49.209875,9.98374478 50.406125,9.98374478 C51.497875,9.98374478 52.179875,11.4802142 52.353125,14.0990356 C52.3875,14.643827 52.3875,15.2568879 52.3875,15.2568879 L50.1325,15.2568879 L50.1325,15.2568879 Z M50.5065,7.87421446 C46.820125,7.87421446 45.17975,12.5015272 45.17975,17.5357268 C45.17975,22.6723307 47.5035,25.7349045 50.917625,25.7349045 C52.591,25.7349045 54.0595,25.0890742 54.811625,24.611187 C54.94775,24.5442828 54.98075,24.4418785 54.94775,24.3039739 L54.674125,23.1502178 C54.641125,23.0123132 54.571,22.9467744 54.4005,22.9467744 C54.264375,22.9467744 53.274375,23.318161 51.876,23.318161 C49.24425,23.318161 48.015,21.0406875 48.015,18.0463833 L48.015,17.2421675 C48.015,17.2421675 49.346,17.400553 50.1325,17.400553 L55.11825,17.400553 L55.11825,15.9696224 C55.11825,10.6992101 53.24,7.87421446 50.5065,7.87421446 L50.5065,7.87421446 Z" id="Fill-6" fill="#1A1918" sketch:type="MSShapeGroup"></path>
                <path d="M71.872625,52.3067941 L73.187125,52.3067941 C76.6425,52.3067941 78.637625,54.648441 78.637625,57.9253813 C78.637625,61.9833257 76.588875,64.270357 73.392,64.270357 L71.872625,64.270357 L71.872625,52.3067941 L71.872625,52.3067941 Z M67.959375,67.8558758 L73.59275,67.8558758 C78.749,67.8558758 83.054125,64.8998026 83.054125,57.8721311 C83.054125,51.0724799 78.816375,48.6543711 73.293,48.6543711 L71.872625,48.6543711 L71.872625,38.2063931 C71.872625,38.0507384 71.7145,37.8431989 71.506875,37.8431989 L67.661,37.8431989 C67.34475,37.8431989 67.2375,37.9988535 67.2375,38.258278 L67.2375,67.3315654 C67.2375,67.6988558 67.447875,67.8558758 67.959375,67.8558758 L67.959375,67.8558758 Z" id="Fill-7" fill="#1A1918" sketch:type="MSShapeGroup"></path>
                <path d="M61.320875,37.8240834 L57.58775,37.8240834 C57.286625,37.8240834 57.107875,38.0643924 57.107875,38.2432587 L57.107875,49.6934342 L50.18475,49.6934342 L50.18475,38.2432587 C50.18475,37.9442379 50.067875,37.8240834 49.76675,37.8240834 L46.03225,37.8240834 C45.733875,37.8240834 45.55375,38.0043151 45.55375,38.2432587 L45.55375,67.3793541 C45.55375,67.6783749 45.672,67.8572412 45.97175,67.8572412 L49.76675,67.8572412 C50.007375,67.8572412 50.18475,67.6783749 50.18475,67.3793541 L50.18475,53.4728387 L57.107875,53.4728387 L57.107875,67.3793541 C57.107875,67.6783749 57.286625,67.8572412 57.58775,67.8572412 L61.320875,67.8572412 C61.620625,67.8572412 61.741625,67.6182977 61.741625,67.3793541 L61.741625,38.2432587 C61.741625,38.0043151 61.5615,37.8240834 61.320875,37.8240834" id="Fill-8" fill="#1A1918" sketch:type="MSShapeGroup"></path>
                <path d="M14.323375,64.0819329 L5.59625,64.0819329 C8.669375,58.8661363 9.871125,52.9908554 10.291875,45.7979715 C10.4115,44.238694 10.472,42.6193394 10.472,41.6021225 L14.323375,41.6021225 L14.323375,64.0819329 L14.323375,64.0819329 Z M20.82575,64.0819329 L20.1025,64.0819329 C19.19775,64.0819329 18.9585,63.7214695 18.9585,63.001908 L18.9585,38.2432587 C18.9585,37.9442379 18.836125,37.8240834 18.596875,37.8240834 L6.560125,37.8240834 C6.259,37.8240834 6.078875,38.0043151 6.078875,38.2432587 L6.078875,40.4019431 C6.078875,47.6535389 5.658125,57.0078381 1.80675,64.0819329 L0.482625,64.0819329 C0.121,64.0819329 0,64.2621646 0,64.5611854 L0,73.3147122 C0,73.6164638 0.242,73.7311567 0.422125,73.7311567 L3.312375,73.7311567 C3.972375,73.7311567 4.211625,73.2560004 4.211625,72.8327289 L4.211625,67.8572412 L17.094,67.8572412 L17.094,73.3147122 C17.094,73.5522904 17.271375,73.7311567 17.513375,73.7311567 L20.582375,73.7311567 C20.942625,73.7311567 21.305625,73.4348667 21.305625,72.8327289 L21.305625,64.5611854 C21.305625,64.2621646 21.124125,64.0819329 20.82575,64.0819329 L20.82575,64.0819329 Z" id="Fill-10" fill="#1A1918" sketch:type="MSShapeGroup"></path>
                <path d="M32.417,50.1139749 C31.032375,50.1139749 28.86675,50.3529185 28.86675,50.3529185 C28.86675,50.3529185 28.86675,49.4544907 28.98775,48.4932549 C29.528125,43.4003435 30.793125,40.8224838 32.89825,40.8224838 C34.824625,40.8224838 36.029125,43.4590553 36.328875,48.0740796 C36.388,49.0325846 36.388,50.1139749 36.388,50.1139749 L32.417,50.1139749 L32.417,50.1139749 Z M33.07975,37.1072527 C26.5815,37.1072527 23.692625,45.2600071 23.692625,54.1295922 C23.692625,63.1807743 27.78325,68.5781681 33.801625,68.5781681 C36.749625,68.5781681 39.33875,67.438066 40.6615,66.5997154 C40.90075,66.4795609 40.962625,66.3006946 40.90075,66.061751 L40.420875,64.0218557 C40.36175,63.7829121 40.242125,63.6627576 39.939625,63.6627576 C39.700375,63.6627576 37.954125,64.3208765 35.487375,64.3208765 C30.85225,64.3208765 28.686625,60.30799 28.686625,55.0293854 L28.686625,53.6121087 C28.686625,53.6121087 31.032375,53.892014 32.417,53.892014 L41.201875,53.892014 L41.201875,51.3715007 C41.201875,42.0827404 37.893625,37.1072527 33.07975,37.1072527 L33.07975,37.1072527 Z" id="Fill-12" fill="#1A1918" sketch:type="MSShapeGroup"></path>
                <path d="M100.060125,37.8240834 L87.429375,37.8240834 C87.129625,37.8240834 86.9495,38.0043151 86.9495,38.2432587 L86.9495,67.3793541 C86.9495,67.6783749 87.069125,67.8572412 87.368875,67.8572412 L91.1625,67.8572412 C91.405875,67.8572412 91.5805,67.6783749 91.5805,67.3793541 L91.5805,41.6266995 L100.060125,41.6266995 C100.238875,41.6266995 100.4795,41.5147374 100.4795,41.2088896 L100.4795,38.2432587 C100.4795,38.0043151 100.299375,37.8240834 100.060125,37.8240834" id="Fill-13" fill="#1A1918" sketch:type="MSShapeGroup"></path>
                <path d="M118.78075,37.8240834 L115.335,37.8240834 C115.127375,37.8240834 114.97475,37.9401417 114.901875,38.0712193 C114.87575,38.119008 107.844,57.2017237 107.844,57.2017237 L107.380625,58.7282317 L107.380625,38.2432587 C107.380625,37.9442379 107.261,37.8240834 106.962625,37.8240834 L103.422,37.8240834 C103.126375,37.8240834 103.013625,38.0343537 103.013625,38.2432587 L103.013625,67.072141 C103.013625,67.6783749 103.13325,67.8572412 103.434375,67.8572412 L106.962625,67.8572412 C107.130375,67.8572412 107.270625,67.7684908 107.336625,67.6101053 C107.358625,67.5582204 114.563625,48.3321386 114.563625,48.3321386 L114.852375,47.336768 L114.852375,67.3793541 C114.852375,67.6783749 115.033875,67.8572412 115.335,67.8572412 L118.78075,67.8572412 C119.081875,67.8572412 119.2015,67.6182977 119.2015,67.072141 L119.2015,38.0835078 C119.2015,37.9210262 119.02275,37.8240834 118.78075,37.8240834" id="Fill-14" fill="#1A1918" sketch:type="MSShapeGroup"></path>
                <path d="M155.958,35.9357465 C157.5035,34.9130681 158.97475,35.2462237 159.242875,36.6744235 C159.506875,38.1067195 158.613125,39.9254214 157.064875,40.9467344 C155.52075,41.9666821 154.04675,41.6389881 153.781375,40.2066921 C153.517375,38.7771269 154.408375,36.9570596 155.958,35.9357465 L155.958,35.9357465 Z M171.815875,37.7394291 L169.389,37.7394291 L169.389,52.7642004 C169.389,55.4553876 168.2285,57.0132996 164.78825,57.7983999 L142.795125,63.9754324 C142.795125,63.9754324 140.921,64.4778965 140.921,62.7902723 C140.921,61.3866495 142.59575,61.2146102 142.855625,60.9633781 L142.7525,61.0029744 L162.822,53.0823367 C164.46375,52.1675242 165.81125,50.0661862 165.81125,48.4072352 L165.81125,24.7176876 C165.81125,20.9751487 162.14,22.2558862 161.33975,22.7310425 C160.4625,23.2457952 138.09125,35.6927068 138.09125,35.6927068 C136.448125,36.6088847 135.106125,38.7156842 135.106125,40.3746353 L135.106125,63.9754324 C135.106125,65.6302872 137.487625,67.8394911 139.0235,67.8490489 L139.0235,67.8504143 L171.815875,67.8504143 C173.7835,67.8558758 175.393625,66.5000418 175.393625,64.8397254 L175.393625,40.7555796 C175.393625,39.0952632 173.7835,37.7394291 171.815875,37.7394291 L171.815875,37.7394291 Z" id="Fill-15" fill="#E5722A" sketch:type="MSShapeGroup"></path>
            </g>
        </g>
    </g>
</svg>